<svg width="689" height="329" fill="none" xmlns="http://www.w3.org/2000/svg"><path d="M12.777 249.421L151.125 1.761l-2.562-.854c-9.821 16.226-19.642 17.08-61.061 17.08v4.27c11.529 0 17.934 2.989 17.934 8.967 0 3.843-.854 8.967-2.989 16.226C73.838 132.423 1.675 252.41.394 254.972v9.394h141.764v30.317c0 23.912-3.416 26.474-29.463 26.474H90.918V325h121.695v-3.843h-7.686c-26.474 0-29.463-2.562-29.463-26.474v-30.317h29.89v-14.945h-29.89v-102.48h-33.306v102.48H12.777zM342.041 22.257c51.667 0 79.422 57.645 79.422 164.395 0 87.108-26.901 134.078-76.86 134.078-51.667 0-78.995-57.645-78.995-164.395 0-87.108 26.474-134.078 76.006-134.078h.427zm1.281-7.686c-67.893 0-113.155 62.769-113.155 156.709 0 94.367 45.262 157.136 113.155 157.136 68.32 0 113.155-62.769 113.155-157.136 0-93.94-44.835-156.709-113.155-156.709zm145.043 234.85L626.713 1.761l-2.562-.854c-9.821 16.226-19.642 17.08-61.061 17.08v4.27c11.529 0 17.934 2.989 17.934 8.967 0 3.843-.854 8.967-2.989 16.226-28.609 84.973-100.772 204.96-102.053 207.522v9.394h141.764v30.317c0 23.912-3.416 26.474-29.463 26.474h-21.777V325h121.695v-3.843h-7.686c-26.474 0-29.463-2.562-29.463-26.474v-30.317h29.89v-14.945h-29.89v-102.48h-33.306v102.48H488.365z" fill="#000"/></svg>