<svg width="55" height="55" fill="none" xmlns="http://www.w3.org/2000/svg"><path d="M27.715 26.533a4.08 4.08 0 01-4.082-4.082 4.08 4.08 0 014.082-4.082 4.08 4.08 0 014.082 4.082 4.08 4.08 0 01-4.082 4.082zm0-6.66a2.586 2.586 0 00-2.578 2.578 2.586 2.586 0 002.578 2.578 2.586 2.586 0 002.578-2.578 2.586 2.586 0 00-2.578-2.578zm6.338 15.469a.761.761 0 01-.752-.752v-4.447c0-.688-.43-1.268-1.074-1.483l-1.504-.473-1.224 1.311a.746.746 0 01-1.053.043.746.746 0 01-.043-1.053l1.31-1.396c.344-.365.881-.516 1.354-.365l1.611.515a3.043 3.043 0 012.127 2.9v4.448a.747.747 0 01-.752.752zm-6.273.43c-.022 0-.022 0 0 0-.43 0-.753-.344-.753-.774l.043-3.502-2.427-3.265-1.44.45c-.644.194-1.074.796-1.074 1.483v4.426a.761.761 0 01-.752.752.761.761 0 01-.752-.752v-4.426c0-1.332.86-2.514 2.127-2.9l1.568-.494a1.327 1.327 0 011.461.472l2.793 3.781-.064 4.018c0 .387-.323.73-.73.73z" fill="#000"/><path d="M27.628 38.264c-2.75 0-5.5-1.053-7.584-3.137-4.189-4.19-4.189-10.979 0-15.168.301-.3.774-.3 1.075 0 .3.3.3.773 0 1.074-3.588 3.588-3.588 9.432 0 13.041a9.17 9.17 0 006.51 2.707 9.17 9.17 0 006.51-2.707 9.17 9.17 0 002.706-6.51 9.17 9.17 0 00-2.707-6.51c-.3-.3-.3-.773 0-1.052.301-.3.774-.3 1.053 0a10.679 10.679 0 013.137 7.584c0 2.857-1.118 5.564-3.137 7.584a10.83 10.83 0 01-7.563 3.094z" fill="#000"/><path d="M30.035 51.24H25.18a2.632 2.632 0 01-2.621-2.62v-2.321c0-1.01-.602-1.934-1.526-2.32-.021 0-.043-.022-.043-.022a2.578 2.578 0 00-2.814.559l-1.44 1.482a2.579 2.579 0 01-1.89.795c-.71 0-1.397-.28-1.89-.816l-3.481-3.61c-.989-1.031-.989-2.62 0-3.63l1.61-1.677c.688-.73.903-1.783.517-2.707l-.022-.085c-.021-.043-.043-.086-.043-.13a2.495 2.495 0 00-2.342-1.59h-2.9c-.71 0-1.375-.279-1.89-.773-.516-.494-.774-1.181-.774-1.89V24.9a2.678 2.678 0 012.664-2.664h2.213a2.553 2.553 0 002.385-1.59l.021-.021c0-.021.021-.021.021-.043a2.522 2.522 0 00-.515-2.857L8.895 16.22a2.663 2.663 0 01-.795-1.912c0-.73.279-1.397.795-1.891l3.609-3.523a2.685 2.685 0 013.738 0l1.569 1.568c.752.73 1.847.967 2.814.559l.086-.022a2.59 2.59 0 001.611-2.406V6.445a2.677 2.677 0 012.664-2.664h4.985a2.678 2.678 0 012.664 2.664v2.213c0 1.053.623 1.998 1.59 2.385.021 0 .043.022.064.022 1.01.43 2.127.193 2.879-.56l1.504-1.525a2.615 2.615 0 011.89-.794 2.58 2.58 0 011.891.794l3.545 3.588a2.685 2.685 0 010 3.739l-1.547 1.568c-.73.752-.967 1.848-.558 2.814l.042.13a2.59 2.59 0 002.407 1.61h2.342a2.678 2.678 0 012.664 2.665v4.984a2.678 2.678 0 01-2.664 2.664H46.47a2.553 2.553 0 00-2.385 1.59.163.163 0 01-.043.086 2.578 2.578 0 00.58 2.857l1.525 1.504a2.65 2.65 0 01.795 1.89c0 .71-.279 1.397-.795 1.892l-3.609 3.544a2.685 2.685 0 01-3.738 0l-1.569-1.546c-.752-.73-1.847-.967-2.814-.559l-.021.022c-.022.021-.065.021-.087.043a2.59 2.59 0 00-1.61 2.406v2.17c-.044 1.418-1.225 2.6-2.665 2.6zm-8.422-8.658a3.978 3.978 0 012.45 3.695v2.32a1.11 1.11 0 001.117 1.118h4.855a1.11 1.11 0 001.117-1.117v-2.17c0-1.676 1.01-3.158 2.557-3.803a.299.299 0 01.129-.043 4.113 4.113 0 014.447.88l1.569 1.548a1.154 1.154 0 001.632 0l3.588-3.545c.215-.215.344-.516.344-.838 0-.322-.129-.602-.344-.838l-1.525-1.504a4.1 4.1 0 01-.902-4.512l.021-.043a4.1 4.1 0 013.781-2.513h2.213c.645 0 1.16-.516 1.16-1.16v-4.985c0-.644-.515-1.16-1.16-1.16H46.32a4.094 4.094 0 01-3.802-2.535l-.043-.107a4.028 4.028 0 01.88-4.448l1.547-1.568a1.154 1.154 0 000-1.633l-3.545-3.588a1.186 1.186 0 00-.837-.344c-.323 0-.602.13-.817.344L38.2 11.56c-1.181 1.203-2.943 1.546-4.511.902 0 0-.022 0-.022-.021l-.043-.022a4.1 4.1 0 01-2.514-3.781V6.424c0-.645-.515-1.16-1.16-1.16h-4.984c-.645 0-1.16.515-1.16 1.16v2.148a4.113 4.113 0 01-2.557 3.803c-.021.021-.064.021-.086.043a4.121 4.121 0 01-4.447-.88l-1.569-1.57a1.154 1.154 0 00-1.632 0l-3.567 3.524a1.186 1.186 0 00-.343.838c0 .322.128.602.343.838l1.526 1.504a4.1 4.1 0 01.902 4.512l-.021.021c0 .022 0 .022-.022.043a4.08 4.08 0 01-3.781 2.492H6.316c-.644 0-1.16.516-1.16 1.16v4.985a1.174 1.174 0 001.182 1.16h2.9c1.655 0 3.116 1.01 3.739 2.535l.085.193a4.009 4.009 0 01-.837 4.319l-1.612 1.676a1.09 1.09 0 000 1.547l3.48 3.609c.216.215.495.344.796.344.3 0 .601-.13.795-.344l1.439-1.483a4.104 4.104 0 014.49-.902v.043z" fill="#000"/></svg>