<svg width="55" height="55" fill="none" xmlns="http://www.w3.org/2000/svg"><path d="M27.5 32.055a8.487 8.487 0 01-2.642-.409 8.812 8.812 0 01-3.008-1.675 9.346 9.346 0 01-2.062-2.6 8.74 8.74 0 01-.924-3.18 8.39 8.39 0 01.386-3.416 8.81 8.81 0 011.676-3.007 9.345 9.345 0 012.6-2.063 8.74 8.74 0 013.18-.924 8.39 8.39 0 013.416.387c.386.129.623.559.494.945-.13.387-.559.623-.946.494a6.989 6.989 0 00-2.814-.322 7.203 7.203 0 00-2.643.774 7.23 7.23 0 00-2.148 1.697 7.013 7.013 0 00-1.375 2.47 6.99 6.99 0 00-.322 2.815 7.2 7.2 0 00.773 2.643 6.92 6.92 0 001.697 2.148 7.011 7.011 0 002.471 1.375c.924.3 1.87.408 2.814.322a7.205 7.205 0 002.643-.773 7.23 7.23 0 002.149-1.697 7.014 7.014 0 001.375-2.471c.3-.924.408-1.87.322-2.815a.748.748 0 01.687-.816.748.748 0 01.817.688 8.392 8.392 0 01-.387 3.416 8.81 8.81 0 01-1.676 3.007 8.973 8.973 0 01-2.6 2.063 8.864 8.864 0 01-3.18.924c-.257-.022-.515 0-.773 0z" fill="#000"/><path d="M27.5 41.55c-1.568 0-2.793-1.245-3.846-2.341-.687-.709-1.353-1.397-1.998-1.654-.687-.28-1.718-.28-2.707-.28-1.568.022-3.201.022-4.275-1.03-1.074-1.075-1.053-2.686-1.031-4.276 0-.989.021-2.02-.28-2.707-.258-.645-.945-1.31-1.654-1.998-1.096-1.075-2.342-2.278-2.342-3.867 0-1.569 1.246-2.793 2.342-3.846.709-.688 1.396-1.354 1.654-1.998.28-.688.28-1.719.28-2.707-.022-1.569-.022-3.201 1.03-4.276 1.075-1.074 2.686-1.052 4.276-1.03.988 0 2.02.02 2.707-.28.645-.258 1.31-.946 1.998-1.655 1.075-1.095 2.278-2.341 3.867-2.341 1.569 0 2.793 1.246 3.846 2.341.688.71 1.354 1.397 1.998 1.655.688.28 1.719.28 2.707.28 1.569-.022 3.201-.022 4.276 1.03 1.074 1.075 1.052 2.686 1.03 4.276 0 .988-.02 2.02.28 2.707.258.644.945 1.31 1.654 1.998 1.096 1.074 2.342 2.277 2.342 3.867 0 1.568-1.246 2.793-2.342 3.846-.709.687-1.396 1.353-1.654 1.998-.28.687-.28 1.718-.28 2.707.022 1.568.022 3.2-1.03 4.275-1.075 1.074-2.686 1.053-4.276 1.031-.988 0-2.02-.021-2.707.28-.644.258-1.31.945-1.998 1.654-1.074 1.074-2.299 2.342-3.867 2.342zm-8.035-5.8c.967 0 1.933.043 2.75.387.924.386 1.74 1.203 2.492 1.998.902.924 1.848 1.89 2.771 1.89.946 0 1.87-.966 2.772-1.89.773-.795 1.568-1.612 2.492-1.998.967-.409 2.149-.387 3.287-.387 1.332.022 2.578.022 3.201-.602.623-.623.602-1.869.602-3.2 0-1.14-.021-2.321.387-3.288.386-.924 1.203-1.74 1.998-2.492.924-.902 1.89-1.848 1.89-2.771 0-.946-.966-1.87-1.89-2.772-.795-.773-1.611-1.568-1.998-2.492-.408-.967-.387-2.149-.387-3.287.021-1.332.021-2.578-.602-3.201-.623-.623-1.869-.602-3.2-.602-1.14 0-2.321.022-3.288-.387-.924-.386-1.74-1.203-2.492-1.998-.902-.924-1.826-1.89-2.771-1.89-.946 0-1.87.966-2.772 1.89-.773.795-1.568 1.612-2.492 1.998-.967.409-2.149.387-3.287.387-1.332-.021-2.578-.021-3.201.602-.623.623-.602 1.869-.602 3.2 0 1.14.021 2.321-.387 3.288-.386.924-1.203 1.74-1.998 2.492-.924.902-1.89 1.826-1.89 2.771 0 .946.966 1.87 1.89 2.772.795.773 1.612 1.568 1.998 2.492.409.967.387 2.149.387 3.287-.021 1.332-.021 2.578.602 3.201.623.623 1.869.602 3.2.602h.538z" fill="#000"/><path d="M35.45 49.736a1.08 1.08 0 01-.452-.107l-7.39-3.91-7.391 3.91a.984.984 0 01-.945-.022.955.955 0 01-.473-.837v-8.336a.76.76 0 01.752-.752.76.76 0 01.752.752v7.433L27.607 44l7.305 3.867v-7.433a.76.76 0 01.752-.752.76.76 0 01.752.752v8.336a.981.981 0 01-.473.837.998.998 0 01-.494.13zm-8.1-23.353l-4.512-4.512c-.3-.3-.3-.773 0-1.053.3-.3.773-.3 1.053 0l3.437 3.438 8.164-8.143c.301-.3.774-.3 1.074 0 .301.301.301.774 0 1.053l-9.216 9.217z" fill="#000"/></svg>