<svg width="55" height="55" fill="none" xmlns="http://www.w3.org/2000/svg"><path d="M47.266 32.012H7.734a3.65 3.65 0 01-3.652-3.653V10.527a3.65 3.65 0 013.652-3.652h39.532a3.65 3.65 0 013.652 3.652V28.36c0 .967-.387 1.891-1.074 2.578a3.607 3.607 0 01-2.578 1.075zM7.734 8.379a2.155 2.155 0 00-2.148 2.148V28.36c0 1.182.967 2.149 2.148 2.149h39.532c.58 0 1.117-.215 1.504-.623.408-.408.623-.946.623-1.504V10.527a2.155 2.155 0 00-2.149-2.148H7.734zm42.432 29.219H4.834a.761.761 0 01-.752-.752c0-.408.344-.752.752-.752h45.332a.76.76 0 01.752.752.761.761 0 01-.752.752zm0 5.371H4.834a.761.761 0 01-.752-.752c0-.408.344-.752.752-.752h45.332c.408 0 .752.344.752.752a.761.761 0 01-.752.752zm0 5.156H4.834a.761.761 0 01-.752-.752c0-.408.344-.752.752-.752h45.332c.408 0 .752.344.752.752a.761.761 0 01-.752.752z" fill="#000"/><path d="M27.607 27.07a7.629 7.629 0 01-7.627-7.627 7.629 7.629 0 017.627-7.627 7.629 7.629 0 017.627 7.627 7.629 7.629 0 01-7.627 7.627zm0-13.75a6.134 6.134 0 00-6.123 6.123 6.134 6.134 0 006.123 6.123 6.134 6.134 0 006.123-6.123 6.134 6.134 0 00-6.123-6.123zm-9.453 6.875h-2.793a.761.761 0 01-.752-.752c0-.408.344-.752.752-.752h2.793a.76.76 0 01.752.752.761.761 0 01-.752.752zm21.485 0h-2.793a.761.761 0 01-.752-.752.76.76 0 01.752-.752h2.793c.408 0 .752.344.752.752a.761.761 0 01-.752.752z" fill="#000"/><path d="M17.725 29.004h-4.577a1.34 1.34 0 01-1.332-1.332c0-.817-.3-1.547-.859-2.106a2.906 2.906 0 00-2.084-.859 1.146 1.146 0 01-1.139-1.139v-8.035c0-.623.516-1.138 1.139-1.138a2.94 2.94 0 002.944-2.944c0-.365.128-.709.386-.945.258-.258.58-.387.945-.387h4.598c.408 0 .752.344.752.752 0 .408-.365.73-.773.73H13.32a4.464 4.464 0 01-1.289 2.987 4.45 4.45 0 01-2.771 1.289v7.326a4.399 4.399 0 012.771 1.29 4.487 4.487 0 011.31 2.986h4.405a.76.76 0 01.752.752.799.799 0 01-.773.773zm23.912 0H37.06a.761.761 0 01-.751-.752.76.76 0 01.752-.752h4.404a4.44 4.44 0 011.31-3.008 4.399 4.399 0 012.772-1.289v-7.326a4.4 4.4 0 01-2.772-1.29 4.487 4.487 0 01-1.31-2.985H37.06a.761.761 0 01-.751-.752.76.76 0 01.752-.752h4.576c.73 0 1.332.601 1.332 1.31 0 .817.3 1.547.86 2.106a2.905 2.905 0 002.083.859c.623 0 1.139.516 1.139 1.139v8.056c0 .623-.516 1.139-1.139 1.139-.795 0-1.525.3-2.084.86a2.906 2.906 0 00-.86 2.083c0 .752-.6 1.354-1.331 1.354zM27.78 23.418h-.56a2.094 2.094 0 01-2.083-1.977v-.107h1.504c0 .322.257.58.58.58h.558c.323 0 .58-.258.58-.58a.56.56 0 00-.215-.43L26.148 19.4a2.067 2.067 0 01-.795-1.61c0-1.161.945-2.085 2.084-2.085h.558c1.117 0 2.02.88 2.084 1.977v.107h-1.504a.578.578 0 00-.58-.58h-.558a.578.578 0 00-.58.58c0 .172.085.322.214.43l1.998 1.504c.494.386.795.988.795 1.611a2.1 2.1 0 01-2.084 2.084z" fill="#000"/><path d="M27.607 16.758a.761.761 0 01-.752-.752v-.645c0-.408.344-.752.752-.752a.76.76 0 01.752.752v.645a.761.761 0 01-.752.752zm0 7.734a.761.761 0 01-.752-.752v-.644a.76.76 0 01.752-.752.76.76 0 01.752.752v.644a.761.761 0 01-.752.752z" fill="#000"/></svg>