<svg width="40" height="40" fill="none" xmlns="http://www.w3.org/2000/svg"><path fill-rule="evenodd" clip-rule="evenodd" d="M19.965 39.719a.396.396 0 01-.235-.07c-.023-.024-.07-.024-.093-.071C6.093 29.572-1.195 18.113.21 8.975.82 4.945 3.093 1.992 6.467.82c4.101-1.43 8.905 0 13.31 3.937C24.183.82 29.057-.61 33.181.82c3.445 1.195 5.788 4.218 6.42 8.295 1.383 9.116-5.834 20.504-19.285 30.463-.023.047-.07.047-.093.07-.094.07-.164.07-.258.07zM9.7 1.406c-.984 0-1.968.164-2.859.492-2.976 1.03-4.99 3.655-5.506 7.24C.844 12.397.75 24.043 19.988 38.454 39.11 24.183 38.97 12.56 38.477 9.303c-.54-3.632-2.578-6.35-5.647-7.382-3.867-1.359-8.436.094-12.63 4.007-.048.024-.118.047-.141.094-.07.024-.164.07-.258.07s-.164-.046-.258-.07c-.07-.047-.094-.07-.14-.094-3.187-2.976-6.585-4.522-9.702-4.522z" fill="#000"/><path fill-rule="evenodd" clip-rule="evenodd" d="M19.285 29.549c-.305 0-.492-.188-.563-.469l-3.89-18.84-3.796 10.1c-.117.234-.304.374-.539.374H2.835a.58.58 0 01-.586-.585.58.58 0 01.586-.586h7.288L14.48 7.967c.094-.234.305-.398.586-.352a.572.572 0 01.515.446l3.82 18.418 3.773-14.036c0-.024 0-.024.046-.047a.479.479 0 01.118-.211c.07-.07.14-.094.21-.117.047-.047.118-.047.188-.047s.117 0 .188.047c.07.023.14.047.187.117.07.07.117.14.14.21 0 .024 0 .024.024.048l1.898 7.1h6.819a.58.58 0 01.586.586.58.58 0 01-.586.585h-7.288a.55.55 0 01-.539-.421l-1.476-5.507-3.866 14.34c-.047.259-.282.423-.54.423zm-4.687 8.904a.516.516 0 01-.351-.14C7.779 32.806 2.999 27.065.07 21.3c-.117-.304-.024-.632.258-.796.304-.117.632-.024.796.258 2.812 5.67 7.499 11.247 13.873 16.684.21.187.257.539.07.82a.744.744 0 01-.469.187zm10.85-.07a.549.549 0 01-.422-.187c-.188-.235-.164-.586.07-.82C31.54 31.822 36.18 26.175 38.898 20.55a.542.542 0 01.75-.258.512.512 0 01.258.726c-2.789 5.788-7.569 11.576-14.083 17.247a.551.551 0 01-.375.117z" fill="#000"/></svg>