<svg width="50" height="50" fill="none" xmlns="http://www.w3.org/2000/svg"><path d="M.977 49.473L0 49.356c.01-.079 1.006-8.282 1.67-12.462.615-3.896 2.178-6.503 2.51-7.021l2.03-12.656c-.048-.625-.321-5.225 1.925-7.588 2.11-2.207 5.058-2.129 5.83-2.07l6.25-4.024V.391h.976v3.418a.493.493 0 01-.224.41l-6.611 4.258a.56.56 0 01-.333.078c-.029 0-3.144-.381-5.175 1.758-2.051 2.158-1.66 6.835-1.66 6.884v.117L5.136 30.127a.485.485 0 01-.078.195c-.02.03-1.778 2.676-2.422 6.729-.655 4.16-1.65 12.343-1.66 12.422z" fill="#000"/><path d="M4.443 49.688l-.81-.547c5.771-8.428 6.513-16.621 6.523-16.71 0-.019 0-.038.01-.058L12.5 21.338a.502.502 0 01.488-.39.48.48 0 01.469.41c.879 5.165 2.47 9.53 2.49 9.57.02.049.03.107.03.156l.224 12.363c0 .098-.03.205-.088.283-.02.02-1.591 2.364-1.591 5.684h-.977c0-3.203 1.309-5.517 1.68-6.094l-.215-12.129c-.186-.517-1.22-3.496-2.041-7.285l-1.836 8.643c-.059.654-.899 8.672-6.69 17.139zm41.114 0c-5.791-8.467-6.631-16.485-6.69-17.14l-1.826-8.652c-.82 3.79-1.865 6.768-2.041 7.286l-.215 12.129c.362.576 1.68 2.89 1.68 6.093h-.977c0-3.32-1.572-5.654-1.591-5.683a.509.509 0 01-.088-.283l.224-12.364c0-.058.01-.107.03-.156.019-.04 1.61-4.414 2.49-9.57a.49.49 0 01.469-.41c.234 0 .439.156.488.39l2.334 11.045c0 .02.01.04.01.059.01.078.752 8.28 6.523 16.699l-.82.556z" fill="#000"/><path d="M49.023 49.473c-.01-.078-1.005-8.262-1.66-12.422-.644-4.063-2.402-6.7-2.422-6.729a.483.483 0 01-.078-.195l-2.06-12.822a.24.24 0 010-.117c0-.05.4-4.727-1.66-6.885-2.041-2.139-5.137-1.758-5.176-1.758a.448.448 0 01-.332-.078l-6.612-4.258a.493.493 0 01-.224-.41V.39h.976v3.154l6.25 4.023c.772-.058 3.721-.136 5.82 2.07 2.247 2.364 1.973 6.964 1.925 7.589l2.03 12.656c.333.527 1.895 3.135 2.51 7.021.665 4.18 1.66 12.373 1.67 12.461l-.957.108zM21.25 23.828h-4.297a5.34 5.34 0 01-3.633-1.416l-1.933-1.777.664-.723 1.933 1.777a4.386 4.386 0 002.97 1.153h4.296c.889 0 1.738-.264 2.47-.762l1.007-.683.546.81-1.005.684a5.277 5.277 0 01-3.018.937zm-.967 15.85c-1.113-1.934-.342-4.688-.098-5.44-1.054-2.48-.292-4.775-.01-5.478l-1.62-3.633.888-.4 1.71 3.837a.465.465 0 01-.01.41c-.01.02-1.172 2.481.01 5.04a.448.448 0 01.01.37c-.01.03-1.075 2.989-.04 4.806l-.84.488zm2.588-29.61A3.536 3.536 0 0020 8.594h-5.938v-.977h5.948c1.445 0 2.822.703 3.662 1.885l-.8.566zM15.93 43.057l4.82 2.751-.484.849-4.82-2.751.484-.849zm-8.244-22.1c-.06-.068-1.465-1.621-1.465-3.77h.976c0 1.758 1.201 3.086 1.211 3.106l-.722.664zm14.287 7.363h5.957v.977h-5.957v-.977zm0 5.371h5.957v.977h-5.957v-.977z" fill="#000"/><path d="M24.512 15.04h.976v6.737h-.976V15.04zm0 9.862h.976v14.551h-.976v-14.55zm-9.132-4.694l1.677.792-.417.883-1.677-.792.417-.883z" fill="#000"/><path d="M33.047 23.828H28.75a5.395 5.395 0 01-3.027-.928l-1.006-.683.547-.81 1.006.683a4.39 4.39 0 002.47.762h4.297c1.104 0 2.158-.41 2.969-1.153l1.934-1.777.663.723-1.933 1.777a5.334 5.334 0 01-3.623 1.406zm-3.33 15.85l-.85-.488c1.045-1.817-.019-4.776-.039-4.805a.49.49 0 01.01-.371c1.172-2.559.02-5.02 0-5.04a.5.5 0 01-.01-.41l1.71-3.837.888.4-1.621 3.633c.283.703 1.045 2.998-.01 5.478.274.762 1.035 3.506-.078 5.44zm-2.588-29.61l-.791-.566A4.508 4.508 0 0130 7.617h5.938v.977H29.99a3.504 3.504 0 00-2.861 1.474zm6.887 32.957l.483.849-4.82 2.746-.484-.849 4.82-2.746zm8.299-22.068l-.723-.664c.01-.01 1.21-1.348 1.21-3.105h.977c0 2.148-1.406 3.7-1.465 3.769z" fill="#000"/><path d="M34.618 20.204l.417.882-1.677.793-.417-.883 1.677-.792z" fill="#000"/></svg>