<svg width="40" height="40" fill="none" xmlns="http://www.w3.org/2000/svg"><path fill-rule="evenodd" clip-rule="evenodd" d="M19.987 37.188c-8.037 0-14.575-6.538-14.575-14.552 0-7.194 5.366-13.403 12.49-14.41.68-.095 1.359-.118 2.085-.118.586 0 1.102.023 1.64.094h.118c7.31.867 12.794 7.123 12.794 14.458 0 7.99-6.538 14.528-14.552 14.528zm0-27.979c-.632 0-1.312.024-1.921.117-6.561.961-11.506 6.679-11.506 13.31 0 7.405 6 13.404 13.427 13.404 7.405 0 13.404-5.999 13.404-13.404 0-6.795-5.061-12.513-11.787-13.333h-.07a11.192 11.192 0 00-1.547-.094z" fill="#000"/><path fill-rule="evenodd" clip-rule="evenodd" d="M19.988 12.396a.58.58 0 01-.586-.586v-1.687a.58.58 0 01.586-.586.58.58 0 01.586.586v1.71a.575.575 0 01-.586.563zm5.39 1.453a.808.808 0 01-.305-.07c-.258-.141-.351-.47-.21-.774l.843-1.453c.164-.258.492-.375.773-.234a.628.628 0 01.234.773l-.843 1.477a.578.578 0 01-.492.28zm3.96 3.937c-.188 0-.399-.094-.492-.282a.567.567 0 01.234-.796l1.453-.844c.257-.164.632-.07.796.234.164.258.047.61-.234.774l-1.453.843a.81.81 0 01-.304.07zm3.116 5.389h-1.688a.58.58 0 01-.585-.586.58.58 0 01.585-.586h1.688a.58.58 0 01.585.586.58.58 0 01-.585.586zm-1.664 6.257c-.093 0-.187-.047-.28-.07l-1.453-.844c-.281-.164-.375-.492-.235-.797a.594.594 0 01.774-.21l1.476.843a.594.594 0 01.21.773.547.547 0 01-.491.305zm-4.569 4.569c-.188 0-.398-.094-.492-.281l-.844-1.476c-.164-.258-.07-.61.188-.774.258-.164.633-.07.796.188l.844 1.476c.164.258.047.61-.21.773a.45.45 0 01-.282.094zm-6.233 1.687a.58.58 0 01-.586-.585v-1.688a.58.58 0 01.586-.585.58.58 0 01.586.585v1.688a.58.58 0 01-.586.585zm-6.21-1.687a.72.72 0 01-.305-.07c-.258-.164-.351-.516-.187-.774l.843-1.452c.164-.258.516-.375.774-.211.257.164.374.515.21.796l-.843 1.453c-.14.164-.305.258-.492.258zm-4.616-4.569a.547.547 0 01-.492-.305c-.164-.258-.07-.609.234-.773l1.453-.844c.258-.164.61-.07.773.211a.578.578 0 01-.21.797l-1.477.844c-.094.07-.187.07-.281.07zm.023-6.257H7.498a.58.58 0 01-.586-.586.58.58 0 01.586-.586h1.687a.58.58 0 01.586.586.58.58 0 01-.586.586zm1.476-5.389a.648.648 0 01-.304-.07l-1.453-.844c-.258-.164-.375-.492-.234-.773a.628.628 0 01.773-.235l1.476.844c.258.164.352.492.211.797a.515.515 0 01-.469.28zm3.914-3.937a.515.515 0 01-.47-.281l-.843-1.477c-.164-.257-.07-.609.211-.773.258-.164.633-.07.797.235l.844 1.452c.164.258.046.633-.235.774a.648.648 0 01-.304.07zm11.295 9.326h-5.882a.58.58 0 01-.586-.586v-8.06a.58.58 0 01.586-.587c.328 0 .54.258.54.586v7.522h5.295a.58.58 0 01.586.586.53.53 0 01-.54.539z" fill="#000"/><path fill-rule="evenodd" clip-rule="evenodd" d="M19.988 39.977c-9.584 0-17.364-7.803-17.364-17.34 0-8.577 6.397-16.005 14.88-17.2a16.857 16.857 0 012.484-.165c.633 0 1.312.024 2.062.141 8.74 1.031 15.325 8.436 15.325 17.247 0 9.513-7.803 17.317-17.387 17.317zm0-33.603c-.656 0-1.383.07-2.32.164-7.92 1.148-13.896 8.06-13.896 16.051 0 8.952 7.264 16.216 16.216 16.216 8.951 0 16.239-7.264 16.239-16.216 0-8.225-6.14-15.137-14.294-16.121-.727-.047-1.36-.094-1.945-.094z" fill="#000"/><path fill-rule="evenodd" clip-rule="evenodd" d="M32.337 11.81a.612.612 0 01-.399-.164.566.566 0 010-.82l1.781-1.78a.566.566 0 01.82 0 .566.566 0 010 .82l-1.78 1.78a.601.601 0 01-.422.164zm-1.219-1.171a.604.604 0 01-.375-.164.566.566 0 010-.82l1.781-1.805a.566.566 0 01.82 0 .58.58 0 010 .797L31.54 10.45a.586.586 0 01-.422.188z" fill="#000"/><path fill-rule="evenodd" clip-rule="evenodd" d="M35.055 10.615c-.352 0-.703-.164-.937-.421l-1.945-1.969c-.258-.21-.399-.586-.399-.937 0-.352.141-.68.399-.937.21-.258.539-.399.914-.399s.703.14.96.399l1.945 1.944c.54.563.492 1.36 0 1.852-.21.328-.585.468-.937.468zm-1.968-3.444c-.047 0-.07 0-.118.023l-.023.024c-.023.046-.023.093-.023.093s0 .07.023.117l1.992 1.969c.047.07.094.07.117.07.047 0 .07 0 .094-.023.07-.07.07-.211 0-.305l-1.945-1.945c-.024-.023-.07-.023-.117-.023zM18.91 6.444a.58.58 0 01-.586-.586v-3.35a.58.58 0 01.586-.587.58.58 0 01.586.586v3.351c-.047.328-.258.586-.586.586zm2.18-.023a.58.58 0 01-.587-.586V2.507a.58.58 0 01.586-.586.58.58 0 01.586.586v3.328c-.047.328-.258.586-.586.586z" fill="#000"/><path fill-rule="evenodd" clip-rule="evenodd" d="M21.792 3.093h-3.609c-.843 0-1.546-.68-1.546-1.523 0-.844.68-1.57 1.546-1.57h3.609c.843 0 1.57.703 1.57 1.57 0 .844-.68 1.523-1.57 1.523zm-3.609-1.945a.436.436 0 00-.421.422c0 .234.21.398.421.398h3.609c.234 0 .422-.164.422-.398a.42.42 0 00-.422-.422h-3.609z" fill="#000"/></svg>