<svg width="44" height="44" fill="none" xmlns="http://www.w3.org/2000/svg"><path fill-rule="evenodd" clip-rule="evenodd" d="M23.997 44h-4.82c-.283 0-.541-.232-.619-.464l-1.494-6.264a15.015 15.015 0 01-3.223-1.469l-5.206 3.248a.659.659 0 01-.774-.052l-3.428-3.428a.632.632 0 01-.103-.799l3.35-5.464a14.308 14.308 0 01-1.262-3.326L.54 24.642c-.284-.077-.516-.335-.516-.619v-4.82a.64.64 0 01.464-.593l6.264-1.495c.36-1.108.85-2.19 1.47-3.222L5 8.687a.698.698 0 01.078-.8L8.506 4.46c.206-.206.515-.257.747-.103l5.465 3.325c1.03-.541 2.14-.928 3.325-1.263L19.383.49a.658.658 0 01.619-.49h4.82c.284 0 .541.206.593.464l1.495 6.238c1.186.412 2.268.902 3.222 1.47l5.181-3.249a.75.75 0 01.8.078l3.427 3.428a.667.667 0 01.103.773l-3.376 5.465c.541 1.056.98 2.14 1.263 3.325l5.928 1.366c.284.077.49.31.49.593v4.82a.666.666 0 01-.464.619l-6.238 1.495c-.36 1.108-.825 2.19-1.469 3.222l3.248 5.18c.154.233.103.568-.103.774l-3.428 3.402c-.207.207-.542.232-.748.103l-5.465-3.325a17.976 17.976 0 01-3.325 1.263l-1.366 5.903c-.051.361-.31.593-.593.593zm-4.33-1.263h3.866l1.315-5.826c.077-.231.258-.412.464-.463 1.263-.284 2.5-.748 3.686-1.392a.607.607 0 01.593 0l5.361 3.248 2.707-2.707-3.17-5.078a.629.629 0 010-.67c.72-1.186 1.288-2.397 1.649-3.609.077-.206.258-.386.464-.412l6.109-1.47V20.57l-5.826-1.314c-.257-.052-.438-.258-.464-.464a12.858 12.858 0 00-1.392-3.686.71.71 0 010-.645L38.303 9.1l-2.706-2.707-5.078 3.171a.542.542 0 01-.67 0 14.388 14.388 0 00-3.61-1.624.676.676 0 01-.412-.464l-1.469-6.16h-3.815l-1.34 5.825a.521.521 0 01-.464.464 12.524 12.524 0 00-3.66 1.392.657.657 0 01-.619 0L9.1 5.748 6.392 8.455l3.17 5.078a.542.542 0 010 .67c-.695 1.16-1.288 2.371-1.623 3.608-.078.232-.258.361-.464.439l-6.187 1.469v3.84l5.826 1.34c.232.027.412.233.464.465a13.414 13.414 0 001.392 3.66c.103.232.103.438 0 .644l-3.3 5.362 2.733 2.706 5.052-3.17a.58.58 0 01.696 0c1.16.722 2.371 1.289 3.583 1.65a.547.547 0 01.438.464l1.495 6.057z" fill="#000"/><path fill-rule="evenodd" clip-rule="evenodd" d="M19.847 28.895a.664.664 0 01-.412-.18l-5.439-5.388c-.387-.412-.644-.928-.644-1.52a2.16 2.16 0 012.139-2.191c.619 0 1.16.206 1.572.618l2.707 2.733 7.166-7.14a2.1 2.1 0 011.546-.645c.593 0 1.109.232 1.547.644.85.851.85 2.217 0 3.068l-9.64 9.64c-.026.078-.078.103-.104.18-.103.13-.283.181-.438.181zm-4.305-8.068a.878.878 0 00-.644.284.936.936 0 00-.283.67c0 .258.103.464.283.644l4.923 4.924 9.306-9.306c.36-.36.36-.98 0-1.34a.878.878 0 00-.645-.284.982.982 0 00-.67.284l-7.578 7.578c-.026.026-.026.026-.052.078a.645.645 0 01-.799-.078l-3.17-3.17a.982.982 0 00-.67-.284zm4.279-10.465a.659.659 0 01-.619-.516c-.051-.36.18-.67.516-.696.773-.154 1.52-.232 2.268-.232.748 0 1.547.078 2.372.232.36.052.567.387.49.696-.078.335-.387.593-.722.516-.748-.155-1.418-.18-2.14-.18-.67 0-1.34.077-2.062.18h-.103zm12.45 5.181a.61.61 0 01-.49-.284c-.36-.54-.825-1.082-1.366-1.623-.541-.542-1.057-1.006-1.598-1.34-.284-.233-.36-.594-.155-.877.232-.284.593-.361.877-.13.593.413 1.16.929 1.778 1.496.593.593 1.109 1.186 1.495 1.778.207.284.155.696-.128.851-.155.077-.31.129-.413.129zm2.037 9.357h-.103c-.36-.077-.567-.412-.49-.722.13-.747.18-1.443.18-2.14 0-.695-.077-1.365-.18-2.113a.606.606 0 01.49-.722c.335-.051.67.18.722.516.129.773.206 1.572.206 2.32 0 .773-.077 1.52-.206 2.345a.659.659 0 01-.619.516zm-5.207 8.016c-.206 0-.386-.103-.541-.283a.62.62 0 01.18-.85c.542-.362 1.083-.8 1.65-1.367.464-.464.902-.954 1.392-1.624a.6.6 0 01.85-.155c.284.207.336.62.155.851a13.47 13.47 0 01-1.495 1.753 15.774 15.774 0 01-1.83 1.547c-.103.128-.206.128-.36.128zm-7.114 2.217c-.825 0-1.598-.077-2.32-.18-.36-.078-.567-.387-.49-.722.078-.335.387-.567.722-.49.644.103 1.34.18 2.088.18.799 0 1.47-.077 2.114-.18.36-.077.67.18.721.49a.594.594 0 01-.515.721c-.696.155-1.444.18-2.32.18zm-7.089-2.217a.644.644 0 01-.361-.103 9.846 9.846 0 01-1.779-1.495 11.91 11.91 0 01-1.52-1.83.62.62 0 01.18-.85c.284-.181.696-.104.877.18.335.54.773 1.056 1.34 1.65.438.463.928.876 1.624 1.34.283.232.335.567.129.876a.683.683 0 01-.49.232zm-5.181-8.068c-.283 0-.567-.206-.618-.49a14.74 14.74 0 01-.206-2.32c0-.747.077-1.546.206-2.32a.631.631 0 01.722-.515c.36.078.567.413.49.722-.13.722-.181 1.418-.181 2.113 0 .67.077 1.34.18 2.088.078.361-.18.696-.49.722h-.103zm2.036-9.305a.683.683 0 01-.36-.129c-.284-.206-.362-.593-.155-.85.515-.722 1.005-1.29 1.546-1.78a13.352 13.352 0 011.779-1.494c.283-.232.696-.155.85.129a.596.596 0 01-.129.876c-.54.335-1.082.8-1.598 1.34-.464.464-.928.98-1.366 1.624-.18.207-.386.284-.567.284z" fill="#000"/></svg>