<svg width="18" height="12" fill="none" xmlns="http://www.w3.org/2000/svg"><path d="M17.488 6.074a.372.372 0 000-.148.364.364 0 00-.058-.14.35.35 0 00-.02-.037C14.346 2.063 11.183.303 8.014.517 3.194.844.179 5.59.053 5.792a.37.37 0 00-.021.056.388.388 0 00-.03.077c-.003.05-.003.1 0 .15a.39.39 0 00.03.079.368.368 0 00.02.054c.127.202 3.142 4.948 7.962 5.275.172.011.345.017.518.017 2.997 0 5.981-1.764 8.878-5.249a.368.368 0 00.02-.038.366.366 0 00.058-.14zM8.07 10.698C4.201 10.438 1.491 6.902.861 6c.628-.902 3.33-4.435 7.206-4.698 2.836-.193 5.698 1.392 8.521 4.698-2.821 3.305-5.68 4.895-8.517 4.698z" fill="#A37950"/><path d="M8.744 2.905a3.097 3.097 0 00-3.036 3.699 3.094 3.094 0 004.221 2.255A3.096 3.096 0 0011.841 6a3.098 3.098 0 00-3.097-3.094zm0 5.403a2.31 2.31 0 01-1.632-3.94A2.31 2.31 0 0111.054 6a2.31 2.31 0 01-2.31 2.308z" fill="#A37950"/></svg>