<svg width="17" height="17" fill="none" xmlns="http://www.w3.org/2000/svg"><g clip-path="url(#clip0_1083_1822)" fill="#515151"><path d="M16.82 6.908l-8.059-5.9a.442.442 0 00-.522 0l-8.058 5.9a.442.442 0 10.522.713L8.5 1.912l7.797 5.71a.44.44 0 00.618-.096.442.442 0 00-.096-.618z"/><path d="M14.685 7.721a.442.442 0 00-.442.442v7.03h-3.534v-3.837a2.21 2.21 0 00-2.208-2.209 2.212 2.212 0 00-2.209 2.209v3.838H2.758V8.163a.442.442 0 00-.883 0v7.472c0 .244.198.442.442.442h4.417a.441.441 0 00.441-.442v-4.28a1.327 1.327 0 012.65 0v4.28c0 .013.002.024.003.034a.441.441 0 00.44.408h4.417a.442.442 0 00.441-.442V8.163a.442.442 0 00-.441-.442z"/></g><defs><clipPath id="clip0_1083_1822"><path fill="#fff" d="M0 0h17v17H0z"/></clipPath></defs></svg>