<svg width="15" height="15" fill="none" xmlns="http://www.w3.org/2000/svg"><path d="M7.446 8.082h.099c.91-.015 1.646-.335 2.19-.947 1.196-1.348.997-3.66.975-3.88C10.633 1.6 9.85.808 9.204.438A3.456 3.456 0 007.533 0H7.48c-.345 0-1.022.056-1.671.426-.653.37-1.448 1.161-1.526 2.83-.021.22-.22 2.53.976 3.879.54.612 1.276.932 2.187.947zM5.113 3.333c0-.01.003-.019.003-.025C5.218 1.081 6.8.842 7.476.842h.038c.839.018 2.264.36 2.36 2.466 0 .01 0 .019.004.025.003.022.22 2.134-.767 3.246-.392.441-.914.659-1.6.665H7.48c-.684-.006-1.209-.224-1.597-.665-.984-1.106-.773-3.227-.77-3.246z" fill="#515151"/><path d="M13.879 11.915v-.009c0-.025-.003-.05-.003-.077-.02-.616-.06-2.054-1.408-2.513l-.03-.01c-1.402-.357-2.566-1.165-2.579-1.174a.419.419 0 10-.481.687c.053.037 1.289.897 2.836 1.295.723.258.804 1.031.826 1.74 0 .027 0 .052.003.077.003.28-.015.711-.065.96-.503.286-2.476 1.273-5.476 1.273-2.989 0-4.974-.99-5.48-1.276a5.337 5.337 0 01-.065-.96c0-.025.003-.05.003-.078.022-.708.103-1.481.826-1.74 1.547-.397 2.783-1.26 2.836-1.294a.419.419 0 10-.481-.687c-.013.01-1.171.817-2.578 1.174a.162.162 0 00-.031.01c-1.349.462-1.389 1.9-1.408 2.512 0 .028 0 .053-.003.078v.01c-.003.16-.006.99.159 1.406.03.081.087.15.161.196C1.534 13.577 3.768 15 7.505 15c3.736 0 5.97-1.426 6.063-1.485a.415.415 0 00.162-.196c.155-.413.152-1.242.149-1.404z" fill="#515151"/></svg>