<svg width="689" height="329" viewBox="0 0 689 329" fill="none" xmlns="http://www.w3.org/2000/svg">
<path d="M12.777 249.421L151.125 1.76099L148.563 0.906973C138.742 17.133 128.921 17.987 87.502 17.987V22.257C99.031 22.257 105.436 25.246 105.436 31.224C105.436 35.067 104.582 40.191 102.447 47.45C73.838 132.423 1.675 252.41 0.394001 254.972V264.366H142.158V294.683C142.158 318.595 138.742 321.157 112.695 321.157H90.918V325H212.613V321.157H204.927C178.453 321.157 175.464 318.595 175.464 294.683V264.366H205.354V249.421H175.464V146.941H142.158V249.421H12.777ZM342.041 22.257C393.708 22.257 421.463 79.902 421.463 186.652C421.463 273.76 394.562 320.73 344.603 320.73C292.936 320.73 265.608 263.085 265.608 156.335C265.608 69.227 292.082 22.257 341.614 22.257H342.041ZM343.322 14.571C275.429 14.571 230.167 77.34 230.167 171.28C230.167 265.647 275.429 328.416 343.322 328.416C411.642 328.416 456.477 265.647 456.477 171.28C456.477 77.34 411.642 14.571 343.322 14.571ZM488.365 249.421L626.713 1.76099L624.151 0.906973C614.33 17.133 604.509 17.987 563.09 17.987V22.257C574.619 22.257 581.024 25.246 581.024 31.224C581.024 35.067 580.17 40.191 578.035 47.45C549.426 132.423 477.263 252.41 475.982 254.972V264.366H617.746V294.683C617.746 318.595 614.33 321.157 588.283 321.157H566.506V325H688.201V321.157H680.515C654.041 321.157 651.052 318.595 651.052 294.683V264.366H680.942V249.421H651.052V146.941H617.746V249.421H488.365Z" fill="black"/>
</svg>
