<svg width="55" height="55" viewBox="0 0 55 55" fill="none" xmlns="http://www.w3.org/2000/svg">
<path d="M27.5005 32.0547C26.5981 32.0547 25.7173 31.9258 24.8579 31.6465C23.7407 31.2812 22.731 30.7227 21.8501 29.9707C21.0122 29.2402 20.3247 28.3594 19.7876 27.3711C19.272 26.3613 18.9712 25.3086 18.8638 24.1914C18.7563 23.0312 18.8853 21.8926 19.2505 20.7754C19.6157 19.6582 20.1743 18.6484 20.9263 17.7676C21.6567 16.9297 22.5376 16.2422 23.5259 15.7051C24.5356 15.1895 25.5884 14.8887 26.7056 14.7813C27.8657 14.6738 29.0044 14.8027 30.1216 15.168C30.5083 15.2969 30.7446 15.7266 30.6157 16.1133C30.4868 16.5 30.0571 16.7363 29.6704 16.6074C28.7466 16.3066 27.8013 16.1992 26.856 16.2852C25.9321 16.3711 25.0513 16.6289 24.2134 17.0586C23.3755 17.4883 22.6665 18.0684 22.0649 18.7559C21.4419 19.4863 20.9692 20.3242 20.6899 21.2266C20.3892 22.1504 20.2817 23.0957 20.3677 24.041C20.4536 24.9648 20.7114 25.8457 21.1411 26.6836C21.5708 27.5215 22.1294 28.2305 22.8384 28.832C23.5688 29.4551 24.4067 29.9277 25.3091 30.207C26.2329 30.5078 27.1782 30.6152 28.1235 30.5293C29.0474 30.4434 29.9282 30.1855 30.7661 29.7559C31.604 29.3262 32.313 28.7461 32.9146 28.0586C33.5376 27.3281 34.0103 26.4902 34.2896 25.5879C34.5903 24.6641 34.6978 23.7187 34.6118 22.7734C34.5689 22.3652 34.8696 22 35.2993 21.957C35.7075 21.9141 36.0728 22.2148 36.1157 22.6445C36.2231 23.8047 36.0942 24.9434 35.729 26.0605C35.3638 27.1777 34.8052 28.1875 34.0532 29.0684C33.3228 29.9062 32.4419 30.6152 31.4536 31.1309C30.4438 31.6465 29.3696 31.9473 28.2739 32.0547C28.0161 32.0332 27.7583 32.0547 27.5005 32.0547Z" fill="black"/>
<path d="M27.5 41.5508C25.9316 41.5508 24.707 40.3047 23.6543 39.209C22.9668 38.5 22.3008 37.8125 21.6563 37.5547C20.9688 37.2754 19.9375 37.2754 18.9492 37.2754C17.3809 37.2969 15.748 37.2969 14.6738 36.2441C13.5996 35.1699 13.6211 33.5586 13.6426 31.9688C13.6426 30.9805 13.6641 29.9492 13.3633 29.2617C13.1055 28.6172 12.418 27.9512 11.709 27.2637C10.6133 26.1895 9.36719 24.9863 9.36719 23.3965C9.36719 21.8281 10.6133 20.6035 11.709 19.5508C12.418 18.8633 13.1055 18.1973 13.3633 17.5527C13.6426 16.8652 13.6426 15.834 13.6426 14.8457C13.6211 13.2773 13.6211 11.6445 14.6738 10.5703C15.748 9.4961 17.3594 9.51758 18.9492 9.53906C19.9375 9.53906 20.9688 9.56055 21.6563 9.25977C22.3008 9.00195 22.9668 8.31445 23.6543 7.60547C24.7285 6.50977 25.9316 5.26367 27.5215 5.26367C29.0899 5.26367 30.3145 6.50977 31.3672 7.60547C32.0547 8.31445 32.7207 9.00195 33.3652 9.25977C34.0527 9.53906 35.084 9.53906 36.0723 9.53906C37.6406 9.51758 39.2734 9.51758 40.3477 10.5703C41.4219 11.6445 41.4004 13.2559 41.3789 14.8457C41.3789 15.834 41.3574 16.8652 41.6582 17.5527C41.916 18.1973 42.6035 18.8633 43.3125 19.5508C44.4082 20.625 45.6543 21.8281 45.6543 23.418C45.6543 24.9863 44.4082 26.2109 43.3125 27.2637C42.6035 27.9512 41.916 28.6172 41.6582 29.2617C41.3789 29.9492 41.3789 30.9805 41.3789 31.9688C41.4004 33.5371 41.4004 35.1699 40.3477 36.2441C39.2734 37.3184 37.6621 37.2969 36.0723 37.2754C35.084 37.2754 34.0527 37.2539 33.3652 37.5547C32.7207 37.8125 32.0547 38.5 31.3672 39.209C30.293 40.2832 29.0684 41.5508 27.5 41.5508ZM19.4648 35.75C20.4316 35.75 21.3984 35.793 22.2148 36.1367C23.1387 36.5234 23.9551 37.3399 24.707 38.1348C25.6094 39.0586 26.5547 40.0254 27.4785 40.0254C28.4238 40.0254 29.3477 39.0586 30.25 38.1348C31.0234 37.3399 31.8184 36.5234 32.7422 36.1367C33.709 35.7285 34.8906 35.75 36.0293 35.75C37.3613 35.7715 38.6074 35.7715 39.2305 35.1484C39.8535 34.5254 39.832 33.2793 39.832 31.9473C39.832 30.8086 39.8106 29.627 40.2188 28.6602C40.6055 27.7363 41.4219 26.9199 42.2168 26.168C43.1406 25.2656 44.1074 24.3203 44.1074 23.3965C44.1074 22.4512 43.1406 21.5273 42.2168 20.625C41.4219 19.8516 40.6055 19.0566 40.2188 18.1328C39.8106 17.166 39.832 15.9844 39.832 14.8457C39.8535 13.5137 39.8535 12.2676 39.2305 11.6445C38.6074 11.0215 37.3613 11.043 36.0293 11.043C34.8906 11.043 33.709 11.0645 32.7422 10.6563C31.8184 10.2695 31.002 9.45313 30.25 8.6582C29.3477 7.73438 28.4238 6.76758 27.4785 6.76758C26.5332 6.76758 25.6094 7.73438 24.707 8.6582C23.9336 9.45313 23.1387 10.2695 22.2148 10.6563C21.2481 11.0645 20.0664 11.043 18.9277 11.043C17.5957 11.0215 16.3496 11.0215 15.7266 11.6445C15.1035 12.2676 15.125 13.5137 15.125 14.8457C15.125 15.9844 15.1465 17.166 14.7383 18.1328C14.3516 19.0566 13.5352 19.8731 12.7402 20.625C11.8164 21.5273 10.8496 22.4512 10.8496 23.3965C10.8496 24.3418 11.8164 25.2656 12.7402 26.168C13.5352 26.9414 14.3516 27.7363 14.7383 28.6602C15.1465 29.627 15.125 30.8086 15.125 31.9473C15.1035 33.2793 15.1035 34.5254 15.7266 35.1484C16.3496 35.7715 17.5957 35.75 18.9277 35.75H19.4648Z" fill="black"/>
<path d="M35.4492 49.7363C35.2988 49.7363 35.127 49.6934 34.998 49.6289L27.6074 45.7188L20.2168 49.6289C19.916 49.7793 19.5508 49.7793 19.2715 49.6074C18.9707 49.4355 18.7988 49.1133 18.7988 48.7695V40.4336C18.7988 40.0254 19.1426 39.6816 19.5508 39.6816C19.959 39.6816 20.3027 40.0254 20.3027 40.4336V47.8672L27.6074 44L34.9121 47.8672V40.4336C34.9121 40.0254 35.2559 39.6816 35.6641 39.6816C36.0723 39.6816 36.416 40.0254 36.416 40.4336V48.7695C36.416 49.1133 36.2441 49.4141 35.9434 49.6074C35.793 49.6934 35.6211 49.7363 35.4492 49.7363Z" fill="black"/>
<path d="M27.3496 26.3828L22.8379 21.8711C22.5371 21.5703 22.5371 21.0977 22.8379 20.8184C23.1387 20.5176 23.6113 20.5176 23.8906 20.8184L27.3281 24.2559L35.4922 16.1133C35.793 15.8125 36.2656 15.8125 36.5664 16.1133C36.8672 16.4141 36.8672 16.8867 36.5664 17.166L27.3496 26.3828Z" fill="black"/>
</svg>
