<svg width="55" height="55" viewBox="0 0 55 55" fill="none" xmlns="http://www.w3.org/2000/svg">
<path d="M47.2656 32.0117H7.73438C5.71484 32.0117 4.08203 30.3789 4.08203 28.3594V10.5273C4.08203 8.50781 5.71484 6.875 7.73438 6.875H47.2656C49.2852 6.875 50.918 8.50781 50.918 10.5273V28.3594C50.918 29.3262 50.5312 30.25 49.8438 30.9375C49.1562 31.625 48.2539 32.0117 47.2656 32.0117ZM7.73438 8.37891C6.55273 8.37891 5.58594 9.3457 5.58594 10.5273V28.3594C5.58594 29.541 6.55273 30.5078 7.73438 30.5078H47.2656C47.8457 30.5078 48.3828 30.293 48.7695 29.8848C49.1777 29.4766 49.3926 28.9395 49.3926 28.3809V10.5273C49.3926 9.3457 48.4258 8.37891 47.2441 8.37891H7.73438Z" fill="black"/>
<path d="M50.166 37.5977H4.83398C4.42578 37.5977 4.08203 37.2539 4.08203 36.8457C4.08203 36.4375 4.42578 36.0938 4.83398 36.0938H50.166C50.5742 36.0938 50.918 36.4375 50.918 36.8457C50.918 37.2539 50.5742 37.5977 50.166 37.5977Z" fill="black"/>
<path d="M50.166 42.9688H4.83398C4.42578 42.9688 4.08203 42.625 4.08203 42.2168C4.08203 41.8086 4.42578 41.4648 4.83398 41.4648H50.166C50.5742 41.4648 50.918 41.8086 50.918 42.2168C50.918 42.625 50.5742 42.9688 50.166 42.9688Z" fill="black"/>
<path d="M50.166 48.125H4.83398C4.42578 48.125 4.08203 47.7812 4.08203 47.373C4.08203 46.9648 4.42578 46.6211 4.83398 46.6211H50.166C50.5742 46.6211 50.918 46.9648 50.918 47.373C50.918 47.7812 50.5742 48.125 50.166 48.125Z" fill="black"/>
<path d="M27.6074 27.0703C23.3965 27.0703 19.9805 23.6543 19.9805 19.4434C19.9805 15.2324 23.3965 11.8164 27.6074 11.8164C31.8184 11.8164 35.2344 15.2324 35.2344 19.4434C35.2344 23.6543 31.8184 27.0703 27.6074 27.0703ZM27.6074 13.3203C24.2344 13.3203 21.4844 16.0703 21.4844 19.4434C21.4844 22.8164 24.2344 25.5664 27.6074 25.5664C30.9805 25.5664 33.7305 22.8164 33.7305 19.4434C33.7305 16.0703 30.9805 13.3203 27.6074 13.3203Z" fill="black"/>
<path d="M18.1543 20.1953H15.3613C14.9531 20.1953 14.6094 19.8516 14.6094 19.4434C14.6094 19.0352 14.9531 18.6914 15.3613 18.6914H18.1543C18.5625 18.6914 18.9062 19.0352 18.9062 19.4434C18.9062 19.8516 18.5625 20.1953 18.1543 20.1953Z" fill="black"/>
<path d="M39.6387 20.1953H36.8457C36.4375 20.1953 36.0938 19.8516 36.0938 19.4434C36.0938 19.0352 36.4375 18.6914 36.8457 18.6914H39.6387C40.0469 18.6914 40.3906 19.0352 40.3906 19.4434C40.3906 19.8516 40.0469 20.1953 39.6387 20.1953Z" fill="black"/>
<path d="M17.7246 29.0039H13.1484C12.418 29.0039 11.8164 28.4023 11.8164 27.6719C11.8164 26.8555 11.5156 26.125 10.957 25.5664C10.3984 25.0078 9.66797 24.707 8.87305 24.707C8.25 24.707 7.73438 24.1914 7.73438 23.5684V15.5332C7.73438 14.9102 8.25 14.3945 8.87305 14.3945C9.66797 14.3945 10.3984 14.0938 10.957 13.5352C11.5156 12.9766 11.8164 12.2246 11.8164 11.4512C11.8164 11.0859 11.9453 10.7422 12.2031 10.5059C12.4609 10.248 12.7832 10.1191 13.1484 10.1191H17.7461C18.1543 10.1191 18.498 10.4629 18.498 10.8711C18.498 11.2793 18.1328 11.6016 17.7246 11.6016H13.3203C13.2773 12.7188 12.8262 13.793 12.0312 14.5879C11.2793 15.3398 10.291 15.791 9.25977 15.877V23.2031C10.3125 23.2891 11.2793 23.7402 12.0312 24.4922C12.8262 25.2871 13.2988 26.3613 13.3418 27.4785H17.7461C18.1543 27.4785 18.498 27.8223 18.498 28.2305C18.498 28.6387 18.1328 29.0039 17.7246 29.0039Z" fill="black"/>
<path d="M41.6367 29.0039H37.0605C36.6523 29.0039 36.3086 28.6602 36.3086 28.252C36.3086 27.8438 36.6523 27.5 37.0605 27.5H41.4648C41.5078 26.3613 41.959 25.3086 42.7754 24.4922C43.5273 23.7402 44.4941 23.2891 45.5469 23.2031V15.877C44.4941 15.791 43.5273 15.3398 42.7754 14.5879C41.9805 13.793 41.5078 12.7188 41.4648 11.6016H37.0605C36.6523 11.6016 36.3086 11.2578 36.3086 10.8496C36.3086 10.4414 36.6523 10.0977 37.0605 10.0977H41.6367C42.3672 10.0977 42.9688 10.6992 42.9688 11.4082C42.9688 12.2246 43.2695 12.9551 43.8281 13.5137C44.3867 14.0723 45.1172 14.373 45.9121 14.373C46.5352 14.373 47.0508 14.8887 47.0508 15.5117V23.5684C47.0508 24.1914 46.5352 24.707 45.9121 24.707C45.1172 24.707 44.3867 25.0078 43.8281 25.5664C43.2695 26.125 42.9688 26.8555 42.9688 27.6504C42.9688 28.4023 42.3672 29.0039 41.6367 29.0039Z" fill="black"/>
<path d="M27.7793 23.418H27.2207C26.1035 23.418 25.2012 22.5371 25.1367 21.4414C25.1367 21.4199 25.1367 21.3984 25.1367 21.377V21.334H26.6406C26.6406 21.6563 26.8984 21.9141 27.2207 21.9141H27.7793C28.1016 21.9141 28.3594 21.6563 28.3594 21.334C28.3594 21.1621 28.2734 21.0117 28.1445 20.9043L26.1465 19.4004C25.6523 19.0137 25.3516 18.4121 25.3516 17.7891C25.3516 16.6289 26.2969 15.7051 27.4355 15.7051H27.9941C29.1113 15.7051 30.0137 16.5859 30.0781 17.6816V17.7461V17.7891H28.5742C28.5742 17.4668 28.3164 17.209 27.9941 17.209H27.4355C27.1133 17.209 26.8555 17.4668 26.8555 17.7891C26.8555 17.9609 26.9414 18.1113 27.0703 18.2188L29.0684 19.7227C29.5625 20.1094 29.8633 20.7109 29.8633 21.334C29.8633 22.4727 28.918 23.418 27.7793 23.418Z" fill="black"/>
<path d="M27.6074 16.7578C27.1992 16.7578 26.8555 16.4141 26.8555 16.0059V15.3613C26.8555 14.9531 27.1992 14.6094 27.6074 14.6094C28.0156 14.6094 28.3594 14.9531 28.3594 15.3613V16.0059C28.3594 16.4141 28.0156 16.7578 27.6074 16.7578Z" fill="black"/>
<path d="M27.6074 24.4922C27.1992 24.4922 26.8555 24.1484 26.8555 23.7402V23.0957C26.8555 22.6875 27.1992 22.3438 27.6074 22.3438C28.0156 22.3438 28.3594 22.6875 28.3594 23.0957V23.7402C28.3594 24.1484 28.0156 24.4922 27.6074 24.4922Z" fill="black"/>
</svg>
