<svg width="55" height="55" viewBox="0 0 55 55" fill="none" xmlns="http://www.w3.org/2000/svg">
<path d="M27.7148 26.5332C25.459 26.5332 23.6328 24.707 23.6328 22.4512C23.6328 20.1953 25.459 18.3691 27.7148 18.3691C29.9707 18.3691 31.7969 20.1953 31.7969 22.4512C31.7969 24.707 29.9707 26.5332 27.7148 26.5332ZM27.7148 19.873C26.2969 19.873 25.1367 21.0332 25.1367 22.4512C25.1367 23.8691 26.2969 25.0293 27.7148 25.0293C29.1328 25.0293 30.293 23.8691 30.293 22.4512C30.293 21.0332 29.1328 19.873 27.7148 19.873Z" fill="black"/>
<path d="M34.0532 35.3418C33.645 35.3418 33.3012 34.998 33.3012 34.5898V30.1426C33.3012 29.4551 32.8715 28.875 32.227 28.6601L30.7231 28.1875L29.4985 29.498C29.2192 29.7988 28.7465 29.8203 28.4457 29.541C28.145 29.2617 28.1235 28.789 28.4028 28.4883L29.7133 27.0918C30.0571 26.7265 30.5942 26.5762 31.0668 26.7265L32.6782 27.2422C33.9457 27.6504 34.8051 28.8105 34.8051 30.1426V34.5898C34.8051 34.998 34.4828 35.3418 34.0532 35.3418Z" fill="black"/>
<path d="M27.7793 35.7715C27.7578 35.7715 27.7578 35.7715 27.7793 35.7715C27.3496 35.7715 27.0273 35.4277 27.0273 34.9981L27.0703 31.4961L24.6426 28.2305L23.2031 28.6816C22.5586 28.875 22.1289 29.4766 22.1289 30.1641V34.5898C22.1289 34.9981 21.7852 35.3418 21.377 35.3418C20.9688 35.3418 20.625 34.9981 20.625 34.5898V30.1641C20.625 28.832 21.4844 27.6504 22.752 27.2637L24.3203 26.7695C24.8574 26.5977 25.4375 26.791 25.7812 27.2422L28.5742 31.0234L28.5098 35.041C28.5098 35.4277 28.1875 35.7715 27.7793 35.7715Z" fill="black"/>
<path d="M27.6284 38.2637C24.8784 38.2637 22.1284 37.2109 20.0444 35.127C15.855 30.9375 15.855 24.1484 20.0444 19.959C20.3452 19.6582 20.8179 19.6582 21.1187 19.959C21.4194 20.2598 21.4194 20.7324 21.1187 21.0332C17.5308 24.6211 17.5308 30.4648 21.1187 34.0742C22.8589 35.8145 25.1792 36.7812 27.6284 36.7812C30.0776 36.7812 32.3979 35.8145 34.1382 34.0742C35.8784 32.334 36.8452 30.0137 36.8452 27.5645C36.8452 25.1152 35.8784 22.7949 34.1382 21.0547C33.8374 20.7539 33.8374 20.2812 34.1382 20.002C34.439 19.7012 34.9116 19.7012 35.1909 20.002C37.2104 22.0215 38.3276 24.7285 38.3276 27.5859C38.3276 30.4434 37.2104 33.1504 35.1909 35.1699C33.1069 37.2109 30.3569 38.2637 27.6284 38.2637Z" fill="black"/>
<path d="M30.0352 51.2402H25.1797C23.7402 51.2402 22.5586 50.0586 22.5586 48.6191V46.2988C22.5586 45.2891 21.957 44.3652 21.0332 43.9785C21.0117 43.9785 20.9902 43.957 20.9902 43.957C20.0234 43.5488 18.9062 43.7852 18.1758 44.5156L16.7363 45.998C16.2422 46.5137 15.5762 46.793 14.8457 46.793C14.1367 46.793 13.4492 46.5137 12.9551 45.9766L9.47461 42.3672C8.48633 41.3359 8.48633 39.7461 9.47461 38.7363L11.0859 37.0605C11.7734 36.3301 11.9883 35.2773 11.6016 34.3535L11.5801 34.2676C11.5586 34.2246 11.5371 34.1816 11.5371 34.1387C11.1504 33.1719 10.248 32.5488 9.19531 32.5488H6.29492C5.58594 32.5488 4.91992 32.2695 4.4043 31.7754C3.88867 31.2812 3.63086 30.5938 3.63086 29.8848V24.9004C3.63086 23.4395 4.83398 22.2363 6.29492 22.2363H8.50781C9.56055 22.2363 10.5059 21.6133 10.8926 20.6465L10.9141 20.625C10.9141 20.6035 10.9355 20.6035 10.9355 20.582C11.3867 19.5938 11.1719 18.4766 10.4199 17.7246L8.89453 16.2207C8.37891 15.7051 8.09961 15.0391 8.09961 14.3086C8.09961 13.5781 8.37891 12.9121 8.89453 12.418L12.5039 8.89453C13.5352 7.88477 15.2109 7.88477 16.2422 8.89453L17.8105 10.4629C18.5625 11.1934 19.6582 11.4297 20.625 11.0215L20.7109 11C21.6992 10.5918 22.3223 9.64648 22.3223 8.59375V6.44531C22.3223 4.98437 23.5254 3.78125 24.9863 3.78125H29.9707C31.4316 3.78125 32.6348 4.98437 32.6348 6.44531V8.6582C32.6348 9.71094 33.2578 10.6563 34.2246 11.043C34.2461 11.043 34.2676 11.0645 34.2891 11.0645C35.2988 11.4941 36.416 11.2578 37.168 10.5059L38.6719 8.98047C39.166 8.46484 39.8535 8.18555 40.5625 8.18555C41.293 8.18555 41.959 8.46484 42.4531 8.98047L45.9981 12.5684C47.0078 13.5996 47.0078 15.2754 45.9981 16.3066L44.4512 17.875C43.7207 18.627 43.4844 19.7227 43.8926 20.6895L43.9355 20.8184C44.3438 21.8066 45.2891 22.4297 46.3418 22.4297H48.6836C50.1445 22.4297 51.3477 23.6328 51.3477 25.0938V30.0781C51.3477 31.5391 50.1445 32.7422 48.6836 32.7422H46.4707C45.418 32.7422 44.4727 33.3652 44.0859 34.332C44.0859 34.3535 44.0645 34.3965 44.043 34.418C43.6348 35.4062 43.8496 36.5234 44.623 37.2754L46.1484 38.7793C46.6641 39.2949 46.9434 39.9609 46.9434 40.6699C46.9434 41.3789 46.6641 42.0664 46.1484 42.5605L42.5391 46.1055C41.5078 47.1152 39.832 47.1152 38.8008 46.1055L37.2324 44.5586C36.4805 43.8281 35.3848 43.5918 34.418 44L34.3965 44.0215C34.375 44.043 34.332 44.043 34.3105 44.0645C33.3223 44.4727 32.6992 45.418 32.6992 46.4707V48.6406C32.6562 50.0586 31.4746 51.2402 30.0352 51.2402ZM21.6133 42.582C23.1172 43.2051 24.0625 44.666 24.0625 46.2773V48.5977C24.0625 49.2207 24.5566 49.7148 25.1797 49.7148H30.0352C30.6582 49.7148 31.1523 49.2207 31.1523 48.5977V46.4277C31.1523 44.752 32.1621 43.2695 33.709 42.625C33.752 42.6035 33.7949 42.582 33.8379 42.582C35.3633 41.959 37.1035 42.3027 38.2852 43.4629L39.8535 45.0098C40.3047 45.4609 41.0352 45.4609 41.4863 45.0098L45.0742 41.4648C45.2891 41.25 45.418 40.9492 45.418 40.627C45.418 40.3047 45.2891 40.0254 45.0742 39.7891L43.5488 38.2852C42.3457 37.1035 42.002 35.3203 42.6465 33.7734L42.668 33.7305C43.3125 32.2051 44.7949 31.2168 46.4492 31.2168H48.6621C49.3066 31.2168 49.8223 30.7012 49.8223 30.0566V25.0723C49.8223 24.4277 49.3066 23.9121 48.6621 23.9121H46.3203C44.6445 23.9121 43.1621 22.9238 42.5176 21.377L42.4746 21.2695C41.8301 19.7441 42.1738 17.9824 43.3555 16.8223L44.9023 15.2539C45.3535 14.8027 45.3535 14.0723 44.9023 13.6211L41.3574 10.0332C41.1426 9.81836 40.8418 9.68945 40.5195 9.68945C40.1973 9.68945 39.918 9.81836 39.7031 10.0332L38.1992 11.5586C37.0176 12.7617 35.2559 13.1055 33.6875 12.4609C33.6875 12.4609 33.666 12.4609 33.666 12.4395L33.623 12.418C32.0977 11.7734 31.1094 10.291 31.1094 8.63672V6.42383C31.1094 5.7793 30.5937 5.26367 29.9492 5.26367H24.9648C24.3203 5.26367 23.8047 5.7793 23.8047 6.42383V8.57227C23.8047 10.248 22.7949 11.7305 21.248 12.375C21.2266 12.3965 21.1836 12.3965 21.1621 12.418C19.6582 13.041 17.8965 12.6973 16.7148 11.5371L15.1465 9.96875C14.6953 9.51758 13.9648 9.51758 13.5137 9.96875L9.94727 13.4922C9.73242 13.707 9.60352 14.0078 9.60352 14.3301C9.60352 14.6523 9.73242 14.9316 9.94727 15.168L11.4727 16.6719C12.6758 17.8535 13.0195 19.6367 12.375 21.1836L12.3535 21.2051C12.3535 21.2266 12.3535 21.2266 12.332 21.248C11.6875 22.7734 10.2051 23.7402 8.55078 23.7402C8.55078 23.7402 8.55078 23.7402 8.5293 23.7402H6.31641C5.67188 23.7402 5.15625 24.2559 5.15625 24.9004V29.8848C5.15625 30.1855 5.28516 30.4863 5.5 30.7012C5.71484 30.916 6.01562 31.0449 6.33789 31.0449H9.23828C10.8926 31.0449 12.3535 32.0547 12.9766 33.5801L13.0625 33.7734C13.6641 35.2559 13.3418 36.9531 12.2246 38.0918L10.6133 39.7676C10.1836 40.1973 10.1836 40.8848 10.6133 41.3145L14.0937 44.9238C14.3086 45.1387 14.5879 45.2676 14.8887 45.2676C15.1895 45.2676 15.4902 45.1387 15.6836 44.9238L17.123 43.4414C18.2832 42.2598 20.0879 41.8945 21.6133 42.5391V42.582Z" fill="black"/>
</svg>
