<svg width="50" height="50" viewBox="0 0 50 50" fill="none" xmlns="http://www.w3.org/2000/svg">
<path d="M0.976562 49.4727L0 49.3555C0.00976562 49.2773 1.00586 41.0742 1.66992 36.8945C2.28516 32.998 3.84766 30.3906 4.17969 29.873L6.21094 17.2168C6.16211 16.5918 5.88867 11.9922 8.13477 9.62891C10.2441 7.42188 13.1934 7.5 13.9648 7.55859L20.2148 3.53516V0.390625H21.1914V3.80859C21.1914 3.97461 21.1035 4.13086 20.9668 4.21875L14.3555 8.47656C14.2578 8.53516 14.1406 8.56445 14.0234 8.55469C13.9941 8.55469 10.8789 8.17383 8.84766 10.3125C6.79688 12.4707 7.1875 17.1484 7.1875 17.1973V17.3145L5.13672 30.127C5.12695 30.1953 5.09766 30.2637 5.05859 30.3223C5.03906 30.3516 3.28125 32.998 2.63672 37.0508C1.98242 41.2109 0.986328 49.3945 0.976562 49.4727Z" fill="black"/>
<path d="M4.44336 49.6875L3.63281 49.1406C9.4043 40.7129 10.1465 32.5195 10.1563 32.4316C10.1563 32.4121 10.1563 32.3926 10.166 32.373L12.5 21.3379C12.5488 21.1133 12.7539 20.9473 12.9883 20.9473C13.2227 20.9473 13.418 21.123 13.457 21.3574C14.3359 26.5234 15.9277 30.8887 15.9473 30.9277C15.9668 30.9766 15.9766 31.0352 15.9766 31.084L16.2012 43.4473C16.2012 43.5449 16.1719 43.6523 16.1133 43.7305C16.0938 43.75 14.5215 46.0938 14.5215 49.4141H13.5449C13.5449 46.2109 14.8535 43.8965 15.2246 43.3203L15.0098 31.1914C14.8242 30.6738 13.7891 27.6953 12.9688 23.9063L11.1328 32.5488C11.0742 33.2031 10.2344 41.2207 4.44336 49.6875Z" fill="black"/>
<path d="M45.5566 49.6875C39.7656 41.2207 38.9258 33.2031 38.8672 32.5488L37.041 23.8965C36.2207 27.6855 35.1758 30.6641 35 31.1816L34.7852 43.3106C35.1465 43.8867 36.4648 46.2012 36.4648 49.4043H35.4883C35.4883 46.084 33.916 43.75 33.8965 43.7207C33.8379 43.6328 33.8086 43.5352 33.8086 43.4375L34.0332 31.0742C34.0332 31.0156 34.043 30.9668 34.0625 30.918C34.082 30.8789 35.6738 26.5039 36.5527 21.3477C36.5918 21.1133 36.7871 20.9473 37.0215 20.9375C37.2559 20.9375 37.4609 21.0938 37.5098 21.3281L39.8437 32.3731C39.8437 32.3926 39.8535 32.4121 39.8535 32.4316C39.8633 32.5098 40.6055 40.7129 46.377 49.1309L45.5566 49.6875Z" fill="black"/>
<path d="M49.0234 49.4727C49.0137 49.3945 48.0176 41.2109 47.3633 37.0508C46.7188 32.9883 44.9609 30.3516 44.9414 30.3223C44.9023 30.2637 44.873 30.1953 44.8633 30.127L42.8027 17.3047C42.793 17.2656 42.793 17.2266 42.8027 17.1875C42.8027 17.1387 43.2031 12.4609 41.1426 10.3027C39.1016 8.16406 36.0059 8.54492 35.9668 8.54492C35.8496 8.56445 35.7324 8.53516 35.6348 8.4668L29.0234 4.20898C28.8867 4.12109 28.7988 3.96484 28.7988 3.79883V0.390625H29.7754V3.54492L36.0254 7.56836C36.7969 7.50977 39.7461 7.43164 41.8457 9.63867C44.0918 12.002 43.8184 16.6016 43.7695 17.2266L45.8008 29.8828C46.1328 30.4102 47.6953 33.0176 48.3105 36.9043C48.9746 41.084 49.9707 49.2773 49.9805 49.3652L49.0234 49.4727Z" fill="black"/>
<path d="M21.25 23.8281H16.9531C15.6055 23.8281 14.3164 23.3301 13.3203 22.4121L11.3867 20.6348L12.0508 19.9121L13.9844 21.6895C14.7949 22.4316 15.8496 22.8418 16.9531 22.8418H21.25C22.1387 22.8418 22.9883 22.5781 23.7207 22.0801L24.7266 21.3965L25.2734 22.207L24.2676 22.8906C23.3789 23.5059 22.334 23.8281 21.25 23.8281Z" fill="black"/>
<path d="M20.2832 39.6777C19.1699 37.7441 19.9414 34.9902 20.1855 34.2383C19.1309 31.7578 19.8926 29.4629 20.1758 28.7598L18.5547 25.127L19.4434 24.7266L21.1523 28.5645C21.2109 28.7012 21.2109 28.8477 21.1426 28.9746C21.1328 28.9941 19.9707 31.4551 21.1523 34.0137C21.2109 34.1309 21.2109 34.2676 21.1621 34.3848C21.1523 34.4141 20.0879 37.373 21.123 39.1895L20.2832 39.6777Z" fill="black"/>
<path d="M22.8711 10.0684C22.207 9.14062 21.1328 8.59375 20 8.59375H14.0625V7.61719H20.0098C21.4551 7.61719 22.832 8.32031 23.6719 9.50195L22.8711 10.0684Z" fill="black"/>
<path d="M15.9297 43.0571L20.7499 45.8084L20.2656 46.657L15.4453 43.9058L15.9297 43.0571Z" fill="black"/>
<path d="M7.68555 20.957C7.62695 20.8887 6.2207 19.3359 6.2207 17.1875H7.19727C7.19727 18.9453 8.39844 20.2734 8.4082 20.293L7.68555 20.957Z" fill="black"/>
<path d="M21.9727 28.3203H27.9297V29.2969H21.9727V28.3203Z" fill="black"/>
<path d="M21.9727 33.6914H27.9297V34.668H21.9727V33.6914Z" fill="black"/>
<path d="M24.5117 15.0391H25.4883V21.7773H24.5117V15.0391Z" fill="black"/>
<path d="M24.5117 24.9023H25.4883V39.4531H24.5117V24.9023Z" fill="black"/>
<path d="M15.3799 20.208L17.0572 21.0003L16.6402 21.8831L14.9629 21.0908L15.3799 20.208Z" fill="black"/>
<path d="M33.0469 23.8281H28.75C27.666 23.8281 26.6211 23.5059 25.7227 22.9004L24.7168 22.2168L25.2637 21.4062L26.2695 22.0898C27.002 22.5879 27.8613 22.8516 28.7402 22.8516H33.0371C34.1406 22.8516 35.1953 22.4414 36.0059 21.6992L37.9395 19.9219L38.6035 20.6445L36.6699 22.4219C35.6836 23.3301 34.3945 23.8281 33.0469 23.8281Z" fill="black"/>
<path d="M29.7171 39.6777L28.8675 39.1895C29.9124 37.373 28.848 34.4141 28.8284 34.3848C28.7796 34.2676 28.7894 34.1309 28.8382 34.0137C30.0101 31.4551 28.8577 28.9941 28.8382 28.9746C28.7796 28.8477 28.7698 28.6914 28.8284 28.5645L30.5374 24.7266L31.4261 25.127L29.805 28.7598C30.0882 29.4629 30.8499 31.7578 29.7952 34.2383C30.0687 35 30.8304 37.7441 29.7171 39.6777Z" fill="black"/>
<path d="M27.1289 10.0684L26.3379 9.50195C27.1777 8.32031 28.5547 7.61719 30 7.61719H35.9375V8.59375H29.9902C28.8574 8.59375 27.7832 9.14062 27.1289 10.0684Z" fill="black"/>
<path d="M34.0156 43.0254L34.499 43.874L29.6788 46.6197L29.1954 45.7711L34.0156 43.0254Z" fill="black"/>
<path d="M42.3145 20.957L41.5918 20.293C41.6016 20.2832 42.8027 18.9453 42.8027 17.1875H43.7793C43.7793 19.3359 42.373 20.8887 42.3145 20.957Z" fill="black"/>
<path d="M34.6182 20.2036L35.0352 21.0864L33.3578 21.8787L32.9408 20.9959L34.6182 20.2036Z" fill="black"/>
</svg>
