<svg width="40" height="40" viewBox="0 0 40 40" fill="none" xmlns="http://www.w3.org/2000/svg">
<path fill-rule="evenodd" clip-rule="evenodd" d="M19.9649 39.7186C19.8711 39.7186 19.8008 39.6952 19.7305 39.6483C19.7071 39.6249 19.6602 39.6249 19.6368 39.578C6.09257 29.5722 -1.19507 18.1135 0.21091 8.97463C0.820166 4.94417 3.09316 1.99162 6.4675 0.819971C10.5683 -0.609437 15.372 0.819971 19.7774 4.7567C24.1828 0.819971 29.0568 -0.609437 33.181 0.819971C36.6257 2.01505 38.969 5.0379 39.6017 9.11523C40.9842 18.2306 33.7669 29.619 20.3164 39.578C20.2929 39.6249 20.2461 39.6249 20.2226 39.6483C20.1289 39.7186 20.0586 39.7186 19.9649 39.7186ZM9.70125 1.40579C8.71706 1.40579 7.73288 1.56982 6.84243 1.89789C3.86645 2.92893 1.85121 5.55342 1.33569 9.13866C0.843599 12.3958 0.749867 24.042 19.9883 38.4532C39.1096 24.1826 38.969 12.5599 38.4769 9.30269C37.9379 5.67059 35.8993 2.95237 32.8295 1.92132C28.9631 0.562209 24.3937 2.01505 20.1992 5.92835C20.1523 5.95178 20.082 5.97521 20.0586 6.02208C19.9883 6.04551 19.8946 6.09238 19.8008 6.09238C19.7071 6.09238 19.6368 6.04551 19.5431 6.02208C19.4728 5.97521 19.4493 5.95178 19.4025 5.92835C16.2156 2.95237 12.8178 1.40579 9.70125 1.40579Z" fill="black"/>
<path fill-rule="evenodd" clip-rule="evenodd" d="M19.2848 29.5486C18.9801 29.5486 18.7927 29.3612 18.7224 29.08L14.8325 10.2399L11.0364 20.3395C10.9192 20.5738 10.7317 20.7144 10.4974 20.7144H2.83485C2.50679 20.7144 2.24902 20.4567 2.24902 20.1286C2.24902 19.8006 2.50679 19.5428 2.83485 19.5428H10.1225L14.481 7.96693C14.5747 7.7326 14.7856 7.56857 15.0668 7.61544C15.3246 7.63887 15.5121 7.8029 15.5824 8.06066L19.4019 26.4789L23.1746 12.4426C23.1746 12.4192 23.1746 12.4192 23.2215 12.3958C23.2449 12.3255 23.2684 12.2552 23.3387 12.1849C23.409 12.1146 23.4792 12.0911 23.5495 12.0677C23.5964 12.0208 23.6667 12.0208 23.737 12.0208C23.8073 12.0208 23.8542 12.0208 23.9245 12.0677C23.9948 12.0911 24.0651 12.1146 24.1119 12.1849C24.1822 12.2552 24.2291 12.3255 24.2525 12.3958C24.2525 12.4192 24.2525 12.4192 24.276 12.4426L26.174 19.5428H32.993C33.3211 19.5428 33.5788 19.8006 33.5788 20.1286C33.5788 20.4567 33.3211 20.7144 32.993 20.7144H25.7054C25.4476 20.7144 25.2367 20.5504 25.1664 20.2926L23.6901 14.7859L19.8237 29.1269C19.7768 29.3846 19.5425 29.5486 19.2848 29.5486Z" fill="black"/>
<path fill-rule="evenodd" clip-rule="evenodd" d="M14.5983 38.4534C14.4811 38.4534 14.3405 38.4066 14.2468 38.3128C7.77927 32.8061 2.99896 27.065 0.0698406 21.3005C-0.047324 20.9959 0.0464077 20.6678 0.327603 20.5038C0.632231 20.3867 0.960292 20.4804 1.12432 20.7616C3.93627 26.4324 8.62286 32.0094 14.9966 37.4458C15.2075 37.6333 15.2544 37.9848 15.0669 38.266C14.9263 38.3831 14.7623 38.4534 14.5983 38.4534ZM25.4477 38.3831C25.2837 38.3831 25.1196 38.3128 25.0259 38.1957C24.8384 37.9614 24.8619 37.6099 25.0962 37.3755C31.5403 31.8219 36.18 26.1746 38.8982 20.5507C39.0388 20.2461 39.3903 20.1523 39.648 20.2929C39.9527 20.4101 40.0464 20.7616 39.9058 21.0193C37.1173 26.8073 32.337 32.5952 25.8226 38.266C25.7055 38.3597 25.5883 38.3831 25.4477 38.3831Z" fill="black"/>
</svg>
