<svg width="44" height="44" viewBox="0 0 44 44" fill="none" xmlns="http://www.w3.org/2000/svg">
<path fill-rule="evenodd" clip-rule="evenodd" d="M23.9973 44H19.1771C18.8936 44 18.6358 43.768 18.5585 43.536L17.0635 37.2724C15.9551 36.9115 14.8983 36.4476 13.8414 35.8032L8.63465 39.051C8.40266 39.2056 8.06757 39.1798 7.86136 38.9994L4.43312 35.5712C4.20114 35.3392 4.17536 35.0299 4.33002 34.7721L7.68093 29.3076C7.13963 28.2765 6.70143 27.1681 6.41789 25.9824L0.540915 24.6421C0.257377 24.5647 0.0253906 24.307 0.0253906 24.0234V19.2033C0.0253906 18.9197 0.257377 18.662 0.489363 18.6104L6.75298 17.1154C7.11385 16.007 7.6036 14.9244 8.22223 13.8934L5.0002 8.68658C4.84554 8.42882 4.8971 8.09373 5.07753 7.88752L8.50577 4.45928C8.71198 4.25308 9.02129 4.20152 9.25328 4.35618L14.7178 7.68131C15.7489 7.14001 16.8573 6.75337 18.043 6.41828L19.3833 0.489748C19.4607 0.20621 19.7184 0 20.002 0H24.8221C25.1057 0 25.3634 0.20621 25.415 0.463972L26.91 6.70182C28.0957 7.11423 29.1783 7.60398 30.132 8.17106L35.313 4.92326C35.5708 4.79438 35.8801 4.82015 36.1121 5.00059L39.5403 8.42882C39.7465 8.63503 39.7723 8.97012 39.6434 9.20211L36.2668 14.6667C36.8081 15.7235 37.2463 16.8061 37.5298 17.9918L43.4583 19.3579C43.7419 19.4353 43.9481 19.6672 43.9481 19.9508V24.7709C43.9481 25.0545 43.7419 25.3122 43.4841 25.3896L37.2463 26.8846C36.8854 27.993 36.4214 29.0756 35.777 30.1066L39.0248 35.2876C39.1795 35.5196 39.1279 35.8547 38.9217 36.0609L35.4935 39.4634C35.2873 39.6696 34.9522 39.6954 34.746 39.5665L29.2814 36.2414C28.1988 36.7827 27.0904 37.1951 25.9563 37.5044L24.5901 43.4071C24.5386 43.768 24.2808 44 23.9973 44ZM19.6669 42.737H23.5333L24.8479 36.9115C24.9252 36.6796 25.1057 36.4991 25.3119 36.4476C26.5749 36.164 27.8122 35.7001 28.9979 35.0556C29.1783 34.9525 29.4103 34.9525 29.5907 35.0556L34.9522 38.3035L37.6587 35.597L34.4882 30.519C34.3593 30.3128 34.3593 30.0551 34.4882 29.8489C35.2099 28.6631 35.777 27.4517 36.1379 26.2402C36.2152 26.034 36.3956 25.8535 36.6018 25.8278L42.7108 24.3585V20.5694L36.8854 19.2548C36.6276 19.2033 36.4472 18.9971 36.4214 18.7909C36.1379 17.4247 35.6481 16.2132 35.0295 15.1049C34.9264 14.8987 34.9264 14.6667 35.0295 14.4605L38.3031 9.099L35.5966 6.3925L30.5187 9.56297C30.3125 9.71763 30.0547 9.71763 29.8485 9.56297C28.7917 8.89279 27.5544 8.32572 26.2398 7.93907C26.0336 7.86174 25.8789 7.68131 25.8274 7.4751L24.3581 1.31459H20.5433L19.2029 7.14001C19.1771 7.39777 18.9709 7.57821 18.7389 7.60398C17.4243 7.88752 16.1871 8.35149 15.0787 8.9959C14.8983 9.099 14.6405 9.099 14.4601 8.9959L9.09862 5.7481L6.39212 8.4546L9.56259 13.5325C9.71725 13.7387 9.71725 13.9965 9.56259 14.2027C8.86663 15.3626 8.27378 16.5741 7.93869 17.8114C7.86136 18.0433 7.68093 18.1722 7.47472 18.2496L1.28843 19.7188V23.5595L7.11385 24.8998C7.34584 24.9256 7.52627 25.1318 7.57782 25.3638C7.86136 26.6268 8.32533 27.8899 8.96974 29.024C9.07284 29.256 9.07284 29.4622 8.96974 29.6684L5.67038 35.0299L8.40266 37.7364L13.4548 34.5659C13.6868 34.4112 13.9188 34.4112 14.1508 34.5659C15.3107 35.2876 16.5222 35.8547 17.7337 36.2156C17.9656 36.2671 18.1461 36.4476 18.1719 36.6796L19.6669 42.737Z" fill="black"/>
<path fill-rule="evenodd" clip-rule="evenodd" d="M19.8472 28.8951C19.7183 28.8951 19.5379 28.8178 19.4347 28.7147L13.996 23.3274C13.6093 22.915 13.3516 22.3995 13.3516 21.8066C13.3516 21.2138 13.5578 20.6725 13.996 20.2343C14.3826 19.8476 14.9239 19.6156 15.491 19.6156C16.1096 19.6156 16.6509 19.8219 17.0633 20.2343L19.7698 22.9666L26.9356 15.8265C27.348 15.3883 27.9151 15.1821 28.4822 15.1821C29.0751 15.1821 29.5906 15.4141 30.0288 15.8265C30.8794 16.6772 30.8794 18.0433 30.0288 18.8939L20.3885 28.5342C20.3627 28.6115 20.3111 28.6373 20.2854 28.7147C20.1823 28.8435 20.0018 28.8951 19.8472 28.8951ZM15.5425 20.8271C15.2848 20.8271 15.0786 20.9302 14.8981 21.1107C14.7177 21.2911 14.6146 21.5231 14.6146 21.7808C14.6146 22.0386 14.7177 22.2448 14.8981 22.4253L19.8214 27.3485L29.1266 18.0433C29.4875 17.6824 29.4875 17.0638 29.1266 16.7029C28.9462 16.5225 28.74 16.4194 28.4822 16.4194C28.2502 16.4194 27.9925 16.5225 27.812 16.7029L20.2338 24.2811C20.208 24.3069 20.208 24.3069 20.1823 24.3585C20.0792 24.4358 19.9245 24.4616 19.8214 24.4616C19.6667 24.4616 19.4863 24.3842 19.3832 24.2811L16.2127 21.1107C16.0323 20.9302 15.7745 20.8271 15.5425 20.8271Z" fill="black"/>
<path fill-rule="evenodd" clip-rule="evenodd" d="M19.8211 10.3619C19.5376 10.3619 19.254 10.1299 19.2025 9.8464C19.1509 9.48553 19.3829 9.17622 19.718 9.15044C20.4913 8.99579 21.2388 8.91846 21.9863 8.91846C22.7338 8.91846 23.5329 8.99579 24.3577 9.15044C24.7186 9.202 24.9248 9.53709 24.8475 9.8464C24.7701 10.1815 24.4608 10.4393 24.1257 10.3619C23.3782 10.2073 22.708 10.1815 21.9863 10.1815C21.3161 10.1815 20.646 10.2588 19.9242 10.3619C19.8984 10.3619 19.8469 10.3619 19.8211 10.3619Z" fill="black"/>
<path fill-rule="evenodd" clip-rule="evenodd" d="M32.2711 15.5429C32.0648 15.5429 31.8844 15.414 31.7813 15.2594C31.4204 14.7181 30.9565 14.1768 30.4152 13.6355C29.8739 13.0942 29.3584 12.6302 28.8171 12.2951C28.5335 12.0631 28.4562 11.7023 28.6624 11.4187C28.8944 11.1352 29.2553 11.0578 29.5388 11.2898C30.1316 11.7023 30.6987 12.2178 31.3173 12.7849C31.9102 13.3777 32.4257 13.9706 32.8124 14.5634C33.0186 14.847 32.967 15.2594 32.6835 15.414C32.5288 15.4914 32.3742 15.5429 32.2711 15.5429Z" fill="black"/>
<path fill-rule="evenodd" clip-rule="evenodd" d="M34.3082 24.9C34.2824 24.9 34.2309 24.9 34.2051 24.9C33.8443 24.8227 33.6381 24.4876 33.7154 24.1783C33.8443 23.4308 33.8958 22.7348 33.8958 22.0388C33.8958 21.3429 33.8185 20.6727 33.7154 19.9252C33.6381 19.5643 33.8958 19.255 34.2051 19.2035C34.5402 19.1519 34.8753 19.3839 34.9268 19.719C35.0557 20.4923 35.1331 21.2913 35.1331 22.0388C35.1331 22.8121 35.0557 23.5596 34.9268 24.3845C34.8753 24.668 34.5918 24.9 34.3082 24.9Z" fill="black"/>
<path fill-rule="evenodd" clip-rule="evenodd" d="M29.1013 32.9164C28.895 32.9164 28.7146 32.8133 28.56 32.6328C28.3795 32.3493 28.4568 31.9627 28.7404 31.7822C29.2817 31.4214 29.823 30.9832 30.3901 30.4161C30.854 29.9521 31.2922 29.4624 31.782 28.7922C31.9882 28.4829 32.3748 28.4571 32.6326 28.6375C32.9161 28.8437 32.9677 29.2562 32.7872 29.4881C32.2717 30.2099 31.782 30.7512 31.2922 31.2409C30.6736 31.8596 30.055 32.3493 29.4621 32.7875C29.359 32.9164 29.2559 32.9164 29.1013 32.9164Z" fill="black"/>
<path fill-rule="evenodd" clip-rule="evenodd" d="M21.9869 35.1329C21.1621 35.1329 20.3888 35.0556 19.667 34.9525C19.3062 34.8752 19.1 34.5659 19.1773 34.2308C19.2546 33.8957 19.5639 33.6637 19.899 33.741C20.5434 33.8441 21.2394 33.9214 21.9869 33.9214C22.786 33.9214 23.4561 33.8441 24.1006 33.741C24.4614 33.6637 24.7707 33.9214 24.8223 34.2308C24.8996 34.5916 24.6419 34.9267 24.3068 34.9525C23.6108 35.1072 22.8633 35.1329 21.9869 35.1329Z" fill="black"/>
<path fill-rule="evenodd" clip-rule="evenodd" d="M14.8979 32.9159C14.7948 32.9159 14.6402 32.8902 14.537 32.8128C13.7895 32.3231 13.2225 31.8076 12.7585 31.3178C12.1399 30.6992 11.6501 30.1063 11.2377 29.4877C11.0573 29.2042 11.1346 28.8175 11.4181 28.6371C11.7017 28.4567 12.1141 28.534 12.2945 28.8175C12.6296 29.3588 13.0678 29.8744 13.6349 30.4672C14.0731 30.9312 14.5628 31.3436 15.2588 31.8076C15.5423 32.0396 15.5939 32.3746 15.3877 32.684C15.2846 32.8128 15.0783 32.9159 14.8979 32.9159Z" fill="black"/>
<path fill-rule="evenodd" clip-rule="evenodd" d="M9.71742 24.8481C9.43388 24.8481 9.15034 24.6419 9.09879 24.3584C8.96991 23.5336 8.89258 22.786 8.89258 22.0385C8.89258 21.291 8.96991 20.492 9.09879 19.7187C9.17612 19.3578 9.48543 19.1516 9.82052 19.2032C10.1814 19.2805 10.3876 19.6156 10.3103 19.9249C10.1814 20.6466 10.1298 21.3426 10.1298 22.0385C10.1298 22.7087 10.2072 23.3789 10.3103 24.1264C10.3876 24.4873 10.1298 24.8224 9.82052 24.8481C9.79475 24.8481 9.7432 24.8481 9.71742 24.8481Z" fill="black"/>
<path fill-rule="evenodd" clip-rule="evenodd" d="M11.7531 15.5429C11.65 15.5429 11.4954 15.4914 11.3923 15.414C11.1087 15.2078 11.0314 14.8212 11.2376 14.5634C11.7531 13.8417 12.2429 13.2746 12.7842 12.7849C13.3512 12.2178 13.9699 11.7023 14.5627 11.2898C14.8463 11.0578 15.2587 11.1352 15.4133 11.4187C15.6453 11.7023 15.568 12.1147 15.2845 12.2951C14.7432 12.6302 14.2019 13.0942 13.6863 13.6355C13.2224 14.0994 12.7584 14.615 12.3202 15.2594C12.1398 15.4656 11.9336 15.5429 11.7531 15.5429Z" fill="black"/>
</svg>
