<svg width="40" height="40" viewBox="0 0 40 40" fill="none" xmlns="http://www.w3.org/2000/svg">
<path fill-rule="evenodd" clip-rule="evenodd" d="M19.9874 37.1882C11.9499 37.1882 5.41211 30.6504 5.41211 22.6363C5.41211 15.4424 10.7782 9.23269 17.9019 8.22507C18.5814 8.13134 19.261 8.10791 19.9874 8.10791C20.5732 8.10791 21.0887 8.13134 21.6277 8.20164H21.698H21.7449C29.0559 9.06866 34.5392 15.3252 34.5392 22.6598C34.5392 30.6504 28.0014 37.1882 19.9874 37.1882ZM19.9874 9.20926C19.3547 9.20926 18.6751 9.23269 18.0659 9.32642C11.5047 10.2872 6.56032 16.0048 6.56032 22.6363C6.56032 30.0411 12.5592 36.04 19.9874 36.04C27.3922 36.04 33.391 30.0411 33.391 22.6363C33.391 15.8408 28.3295 10.1231 21.6043 9.30299H21.534C21.0184 9.23269 20.5263 9.20926 19.9874 9.20926Z" fill="black"/>
<path fill-rule="evenodd" clip-rule="evenodd" d="M19.9882 12.3959C19.6601 12.3959 19.4023 12.1382 19.4023 11.8101V10.1229C19.4023 9.79487 19.6601 9.53711 19.9882 9.53711C20.3162 9.53711 20.574 9.79487 20.574 10.1229V11.8335C20.574 12.1382 20.3162 12.3959 19.9882 12.3959Z" fill="black"/>
<path fill-rule="evenodd" clip-rule="evenodd" d="M25.3777 13.8487C25.284 13.8487 25.1902 13.8253 25.0731 13.7784C24.8153 13.6378 24.7216 13.3098 24.8622 13.0051L25.7058 11.5523C25.8698 11.2945 26.1979 11.1774 26.4791 11.318C26.7368 11.482 26.8306 11.8101 26.7134 12.0912L25.8698 13.5675C25.7526 13.755 25.5652 13.8487 25.3777 13.8487Z" fill="black"/>
<path fill-rule="evenodd" clip-rule="evenodd" d="M29.3376 17.7856C29.1501 17.7856 28.9392 17.6918 28.8455 17.5044C28.6815 17.2232 28.7752 16.8717 29.0798 16.7076L30.5327 15.864C30.7904 15.7 31.1654 15.7937 31.3294 16.0984C31.4934 16.3561 31.3762 16.7076 31.0951 16.8717L29.6422 17.7153C29.525 17.7621 29.4313 17.7856 29.3376 17.7856Z" fill="black"/>
<path fill-rule="evenodd" clip-rule="evenodd" d="M32.4537 23.1751H30.7665C30.4384 23.1751 30.1807 22.9173 30.1807 22.5892C30.1807 22.2612 30.4384 22.0034 30.7665 22.0034H32.4537C32.7817 22.0034 33.0395 22.2612 33.0395 22.5892C33.0395 22.9173 32.7817 23.1751 32.4537 23.1751Z" fill="black"/>
<path fill-rule="evenodd" clip-rule="evenodd" d="M30.7908 29.4317C30.6971 29.4317 30.6033 29.3848 30.5096 29.3614L29.0567 28.5178C28.7755 28.3537 28.6818 28.0257 28.8224 27.721C28.9864 27.4633 29.3145 27.3695 29.5957 27.5101L31.072 28.3537C31.3297 28.5178 31.4235 28.8458 31.2829 29.127C31.1891 29.3145 31.0017 29.4317 30.7908 29.4317Z" fill="black"/>
<path fill-rule="evenodd" clip-rule="evenodd" d="M26.221 34.001C26.0335 34.001 25.8226 33.9073 25.7289 33.7198L24.8853 32.2436C24.7213 31.9858 24.815 31.6343 25.0728 31.4703C25.3305 31.3062 25.7055 31.4 25.8695 31.6577L26.7131 33.134C26.8771 33.3918 26.76 33.7433 26.5022 33.9073C26.4085 33.9776 26.3147 34.001 26.221 34.001Z" fill="black"/>
<path fill-rule="evenodd" clip-rule="evenodd" d="M19.9882 35.6884C19.6601 35.6884 19.4023 35.4306 19.4023 35.1026V33.4154C19.4023 33.0874 19.6601 32.8296 19.9882 32.8296C20.3162 32.8296 20.574 33.0874 20.574 33.4154V35.1026C20.574 35.4306 20.3162 35.6884 19.9882 35.6884Z" fill="black"/>
<path fill-rule="evenodd" clip-rule="evenodd" d="M13.7778 34.001C13.6841 34.001 13.5669 33.9776 13.4732 33.9307C13.2154 33.7667 13.1217 33.4152 13.2857 33.1574L14.1293 31.7046C14.2933 31.4468 14.6448 31.3296 14.9026 31.4937C15.1603 31.6577 15.2775 32.0092 15.1135 32.2904L14.2699 33.7432C14.1293 33.9073 13.9653 34.001 13.7778 34.001Z" fill="black"/>
<path fill-rule="evenodd" clip-rule="evenodd" d="M9.1618 29.4319C8.9509 29.4319 8.76344 29.3147 8.66971 29.1273C8.50568 28.8695 8.59941 28.518 8.90404 28.354L10.3569 27.5104C10.6146 27.3464 10.9661 27.4401 11.1302 27.7213C11.2942 28.0025 11.2005 28.354 10.9193 28.518L9.44299 29.3616C9.34926 29.4319 9.25553 29.4319 9.1618 29.4319Z" fill="black"/>
<path fill-rule="evenodd" clip-rule="evenodd" d="M9.1851 23.1751H7.49793C7.16987 23.1751 6.91211 22.9173 6.91211 22.5892C6.91211 22.2612 7.16987 22.0034 7.49793 22.0034H9.1851C9.51316 22.0034 9.77093 22.2612 9.77093 22.5892C9.77093 22.9173 9.51316 23.1751 9.1851 23.1751Z" fill="black"/>
<path fill-rule="evenodd" clip-rule="evenodd" d="M10.6613 17.7858C10.5442 17.7858 10.4504 17.7624 10.3567 17.7155L8.90385 16.8719C8.64609 16.7079 8.52892 16.3798 8.66952 16.0987C8.83355 15.8409 9.16161 15.7472 9.44281 15.8643L10.9191 16.7079C11.1768 16.8719 11.2706 17.2 11.13 17.5046C11.0362 17.6921 10.8488 17.7858 10.6613 17.7858Z" fill="black"/>
<path fill-rule="evenodd" clip-rule="evenodd" d="M14.5746 13.8489C14.3871 13.8489 14.1997 13.7552 14.1059 13.5677L13.2624 12.0914C13.0983 11.8337 13.1921 11.4822 13.4733 11.3181C13.731 11.1541 14.1059 11.2478 14.27 11.5525L15.1136 13.0053C15.2776 13.2631 15.1604 13.638 14.8792 13.7786C14.7855 13.8255 14.6918 13.8489 14.5746 13.8489Z" fill="black"/>
<path fill-rule="evenodd" clip-rule="evenodd" d="M25.8698 23.175H19.9882C19.6601 23.175 19.4023 22.9172 19.4023 22.5891V14.5282C19.4023 14.2001 19.6601 13.9424 19.9882 13.9424C20.3162 13.9424 20.5271 14.2001 20.5271 14.5282V22.0502H25.823C26.151 22.0502 26.4088 22.3079 26.4088 22.636C26.4088 22.9641 26.151 23.175 25.8698 23.175Z" fill="black"/>
<path fill-rule="evenodd" clip-rule="evenodd" d="M19.9878 39.9766C10.4038 39.9766 2.62402 32.1735 2.62402 22.6363C2.62402 14.0598 9.02121 6.63157 17.5039 5.43649C18.5115 5.29589 19.2614 5.27246 19.9878 5.27246C20.6205 5.27246 21.3001 5.29589 22.0499 5.41306C30.7904 6.44411 37.375 13.8489 37.375 22.6597C37.375 32.1735 29.5719 39.9766 19.9878 39.9766ZM19.9878 6.37381C19.3317 6.37381 18.6053 6.44411 17.668 6.53784C9.74763 7.68605 3.77224 14.5988 3.77224 22.5894C3.77224 31.5408 11.0364 38.805 19.9878 38.805C28.9392 38.805 36.2268 31.5408 36.2268 22.5894C36.2268 14.3644 30.0874 7.45172 21.9328 6.46754C21.2063 6.42067 20.5736 6.37381 19.9878 6.37381Z" fill="black"/>
<path fill-rule="evenodd" clip-rule="evenodd" d="M32.3366 11.8102C32.196 11.8102 32.0319 11.7399 31.9382 11.6462C31.7039 11.4119 31.7039 11.0604 31.9382 10.826L33.7191 9.04514C33.9534 8.81081 34.3049 8.81081 34.5393 9.04514C34.7736 9.27947 34.7736 9.63097 34.5393 9.86529L32.7584 11.6462C32.6178 11.7634 32.5006 11.8102 32.3366 11.8102ZM31.1181 10.6386C31.0009 10.6386 30.8369 10.5683 30.7431 10.4746C30.5088 10.2402 30.5088 9.88873 30.7431 9.6544L32.524 7.85006C32.7584 7.61573 33.1099 7.61573 33.3442 7.85006C33.5551 8.06096 33.5551 8.43589 33.3442 8.64678L31.5398 10.4511C31.4227 10.5683 31.2821 10.6386 31.1181 10.6386Z" fill="black"/>
<path fill-rule="evenodd" clip-rule="evenodd" d="M35.055 10.6153C34.7035 10.6153 34.352 10.4513 34.1177 10.1935L32.1728 8.22514C31.915 8.01425 31.7744 7.63932 31.7744 7.28783C31.7744 6.93633 31.915 6.60827 32.1728 6.35051C32.3837 6.09275 32.7117 5.95215 33.0867 5.95215C33.4616 5.95215 33.7896 6.09275 34.0474 6.35051L35.9923 8.29544C36.5313 8.85783 36.4844 9.65455 35.9923 10.1466C35.7815 10.4747 35.4065 10.6153 35.055 10.6153ZM33.0867 7.17066C33.0398 7.17066 33.0164 7.17066 32.9695 7.19409L32.9461 7.21753C32.9226 7.26439 32.9226 7.31126 32.9226 7.31126C32.9226 7.31126 32.9226 7.38156 32.9461 7.42842L34.9379 9.39679C34.9847 9.46709 35.0316 9.46709 35.055 9.46709C35.1019 9.46709 35.1253 9.46709 35.1488 9.44366C35.2191 9.37336 35.2191 9.23276 35.1488 9.13903L33.2038 7.19409C33.1804 7.17066 33.1335 7.17066 33.0867 7.17066Z" fill="black"/>
<path fill-rule="evenodd" clip-rule="evenodd" d="M18.91 6.44394C18.582 6.44394 18.3242 6.18618 18.3242 5.85812V2.50721C18.3242 2.17915 18.582 1.92139 18.91 1.92139C19.2381 1.92139 19.4959 2.17915 19.4959 2.50721V5.85812C19.449 6.18618 19.2381 6.44394 18.91 6.44394ZM21.0893 6.42051C20.7612 6.42051 20.5035 6.16275 20.5035 5.83469V2.50721C20.5035 2.17915 20.7612 1.92139 21.0893 1.92139C21.4174 1.92139 21.6751 2.17915 21.6751 2.50721V5.83469C21.6283 6.16275 21.4174 6.42051 21.0893 6.42051Z" fill="black"/>
<path fill-rule="evenodd" clip-rule="evenodd" d="M21.792 3.09315H18.1833C17.3397 3.09315 16.6367 2.41359 16.6367 1.57001C16.6367 0.726421 17.3163 0 18.1833 0H21.792C22.6355 0 23.362 0.702988 23.362 1.57001C23.362 2.41359 22.6824 3.09315 21.792 3.09315ZM18.1833 1.14821C17.9724 1.14821 17.7615 1.33568 17.7615 1.57001C17.7615 1.80434 17.9724 1.96837 18.1833 1.96837H21.792C22.0263 1.96837 22.2138 1.80434 22.2138 1.57001C22.2138 1.33568 22.0263 1.14821 21.792 1.14821H18.1833Z" fill="black"/>
</svg>
