<svg width="18" height="12" viewBox="0 0 18 12" fill="none" xmlns="http://www.w3.org/2000/svg">
<path d="M17.4878 6.07356C17.4976 6.025 17.4976 5.97497 17.4878 5.9264C17.4786 5.87638 17.459 5.82883 17.4303 5.78682C17.4243 5.77372 17.4174 5.76098 17.4098 5.74868C14.3459 2.06272 11.1826 0.303359 8.0138 0.517423C3.19364 0.844186 0.178537 5.59009 0.0525407 5.79187C0.0441095 5.80985 0.0371377 5.82849 0.0316928 5.84759C0.0192788 5.87232 0.00954816 5.89831 0.00266696 5.92511C-0.000888988 5.975 -0.000888988 6.02508 0.00266696 6.07497C0.00964478 6.10231 0.0195709 6.12881 0.032271 6.15401C0.0376058 6.17254 0.0443885 6.19063 0.0525565 6.2081C0.178553 6.41007 3.19365 11.156 8.01382 11.4827C8.1863 11.4942 8.3589 11.5 8.53164 11.5C11.5287 11.5 14.513 9.73641 17.4098 6.25128C17.4174 6.23898 17.4243 6.22625 17.4304 6.21314C17.459 6.17113 17.4786 6.12358 17.4878 6.07356H17.4878ZM8.07142 10.6983C4.20079 10.4385 1.49102 6.90167 0.860312 5.99984C1.48914 5.0982 4.1912 1.56467 8.06681 1.30188C10.9028 1.10905 13.7653 2.69374 16.5883 5.99998C13.7669 9.30462 10.9077 10.8945 8.07142 10.6983Z" fill="#A37950"/>
<path d="M8.7444 2.90527C8.13206 2.90529 7.53347 3.08681 7.02434 3.42688C6.51521 3.76695 6.11839 4.25029 5.88408 4.81579C5.64976 5.38128 5.58847 6.00353 5.70795 6.60384C5.82743 7.20416 6.12231 7.75558 6.55532 8.18837C6.98832 8.62116 7.54 8.91589 8.14058 9.03528C8.74116 9.15467 9.36367 9.09337 9.92939 8.85912C10.4951 8.62487 10.9786 8.22819 11.3188 7.71926C11.659 7.21032 11.8406 6.61198 11.8406 5.99991C11.8396 5.17943 11.5131 4.39283 10.9326 3.81268C10.3522 3.23253 9.56523 2.9062 8.7444 2.90527ZM8.7444 8.30835C8.28766 8.30833 7.84119 8.17294 7.46144 7.91928C7.08168 7.66563 6.7857 7.30512 6.61092 6.88332C6.43615 6.46153 6.39042 5.99741 6.47953 5.54964C6.56864 5.10187 6.78858 4.69057 7.11154 4.36775C7.43451 4.04493 7.84598 3.82508 8.29394 3.73601C8.7419 3.64694 9.20623 3.69264 9.6282 3.86734C10.0502 4.04205 10.4108 4.3379 10.6646 4.71749C10.9184 5.09708 11.0538 5.54337 11.0538 5.99991C11.0531 6.61193 10.8096 7.19869 10.3767 7.63145C9.9437 8.06422 9.35669 8.30765 8.7444 8.30835Z" fill="#A37950"/>
</svg>
