<svg width="17" height="17" viewBox="0 0 17 17" fill="none" xmlns="http://www.w3.org/2000/svg">
<g clip-path="url(#clip0_1083_1822)">
<path d="M16.8192 6.90838L8.76096 1.00829C8.60557 0.894535 8.39447 0.894535 8.23914 1.00829L0.18081 6.90838C-0.0160179 7.05252 -0.0587835 7.3289 0.0853512 7.52573C0.229486 7.72256 0.505902 7.76526 0.702697 7.62119L8.50002 1.91211L16.2973 7.62116C16.376 7.67876 16.4673 7.70649 16.5579 7.70649C16.6939 7.70649 16.8281 7.6439 16.9147 7.5257C17.0588 7.3289 17.0161 7.05252 16.8192 6.90838Z" fill="#515151"/>
<path d="M14.6846 7.72119C14.4407 7.72119 14.2429 7.91895 14.2429 8.16289V15.1936H10.7093V11.3558C10.7093 10.1379 9.71847 9.14713 8.50065 9.14713C7.28283 9.14713 6.29198 10.138 6.29198 11.3558V15.1937H2.7584V8.16293C2.7584 7.91898 2.56061 7.72122 2.3167 7.72122C2.07279 7.72122 1.875 7.91898 1.875 8.16293V15.6354C1.875 15.8793 2.07279 16.0771 2.3167 16.0771H6.73368C6.96597 16.0771 7.15606 15.8976 7.17365 15.6698C7.17472 15.6595 7.17538 15.6482 7.17538 15.6354V11.3558C7.17538 10.6251 7.76988 10.0306 8.50065 10.0306C9.23142 10.0306 9.82592 10.6251 9.82592 11.3558V15.6354C9.82592 15.6481 9.82658 15.6592 9.82765 15.6694C9.84505 15.8974 10.0352 16.0771 10.2676 16.0771H14.6846C14.9285 16.0771 15.1263 15.8793 15.1263 15.6354V8.16293C15.1263 7.91895 14.9285 7.72119 14.6846 7.72119Z" fill="#515151"/>
</g>
<defs>
<clipPath id="clip0_1083_1822">
<rect width="17" height="17" fill="white"/>
</clipPath>
</defs>
</svg>
