<svg width="16" height="17" viewBox="0 0 16 17" fill="none" xmlns="http://www.w3.org/2000/svg">
<path d="M14.5938 2.875H1.40625C0.632438 2.875 0 3.50466 0 4.28125V12.7188C0 13.4956 0.632844 14.125 1.40625 14.125H14.5938C15.3676 14.125 16 13.4953 16 12.7188V4.28125C16 3.50447 15.3673 2.875 14.5938 2.875ZM14.3778 3.8125C13.9232 4.26866 8.58266 9.62656 8.36325 9.84669C8.18 10.0305 7.82009 10.0306 7.63675 9.84669L1.62219 3.8125H14.3778ZM0.9375 12.5464V4.45359L4.97078 8.5L0.9375 12.5464ZM1.62219 13.1875L5.63263 9.164L6.97278 10.5085C7.52197 11.0595 8.47825 11.0593 9.02725 10.5085L10.3674 9.16403L14.3778 13.1875H1.62219ZM15.0625 12.5464L11.0292 8.5L15.0625 4.45359V12.5464Z" fill="#515151"/>
</svg>
