<svg width="15" height="15" viewBox="0 0 15 15" fill="none" xmlns="http://www.w3.org/2000/svg">
<path d="M14.4872 10.8474C13.8585 10.2126 13.2299 9.58712 12.6199 8.98328C12.2886 8.65504 11.9015 8.48163 11.4958 8.48163C11.0902 8.48163 10.7031 8.65504 10.3749 8.98018L10.2912 9.06379C9.95991 9.39203 9.61618 9.73266 9.28484 10.0733C9.21672 10.0392 9.14859 10.0052 9.08356 9.9711C8.93183 9.89678 8.78629 9.82556 8.65933 9.74505C7.66222 9.11953 6.74562 8.28654 5.85999 7.19344C5.42956 6.66391 5.12919 6.19323 4.91862 5.71635C5.2128 5.43146 5.50078 5.14038 5.78257 4.85549C5.8538 4.78427 5.92812 4.70995 5.99934 4.63873C6.68988 3.94509 6.68679 3.04707 5.99624 2.35033C5.78567 2.13666 5.56891 1.923 5.36143 1.71552C5.26854 1.62263 5.17564 1.52973 5.08274 1.43683C4.98365 1.33774 4.88765 1.24174 4.78856 1.14265C4.57799 0.928984 4.35813 0.709125 4.13827 0.495458C3.80693 0.170314 3.41676 0 3.0142 0C2.61164 0 2.22147 0.170314 1.89323 0.495458C1.7353 0.653386 1.57428 0.811313 1.42254 0.966144C1.19959 1.1922 0.96734 1.42444 0.735094 1.6474C0.301569 2.05925 0.0600327 2.57948 0.0135835 3.19571C-0.0576386 4.16495 0.211767 5.04129 0.453303 5.69777C1.0045 7.18105 1.84678 8.58691 3.02969 9.99587C4.50367 11.7486 6.27803 13.1358 8.30322 14.1237C9.418 14.6656 10.3749 14.9412 11.3069 14.9938C11.3751 14.9969 11.4432 15 11.5082 15C12.2948 15 12.9419 14.7213 13.4312 14.1763C13.6418 13.941 13.8678 13.7211 14.1063 13.4889C14.227 13.3712 14.3509 13.2504 14.4748 13.1265C15.1684 12.4298 15.1715 11.538 14.4872 10.8474ZM13.8864 12.5382C13.7687 12.6559 13.648 12.7735 13.5303 12.8912C13.2919 13.1235 13.0441 13.365 12.815 13.622C12.4527 14.0277 11.9944 14.198 11.3596 14.1639C10.539 14.1175 9.6874 13.8697 8.67481 13.3774C6.75491 12.4422 5.07035 11.1261 3.67378 9.46635C2.55281 8.13171 1.75698 6.80945 1.23984 5.41598C0.920891 4.56131 0.80322 3.89864 0.849669 3.27002C0.880635 2.86437 1.03237 2.53303 1.31416 2.26672C1.5526 2.02828 1.78794 1.78984 2.01709 1.56069C2.16883 1.40896 2.32366 1.25103 2.47849 1.0962C2.59616 0.97853 2.78505 0.839182 3.0142 0.839182C3.24335 0.839182 3.43225 0.97853 3.55301 1.0962C3.76668 1.30677 3.98654 1.52663 4.19401 1.7372C4.2931 1.83629 4.3891 1.93538 4.48819 2.03138C4.58109 2.12428 4.67399 2.21718 4.76689 2.31007C4.97436 2.51755 5.18802 2.73121 5.39859 2.94178C5.77019 3.31647 5.77328 3.67878 5.40169 4.05037C5.33047 4.12469 5.25615 4.19591 5.18493 4.27023C4.88456 4.5737 4.5718 4.88955 4.25904 5.18993C4.10421 5.33856 3.95248 5.59249 4.10421 5.95789C4.34575 6.53695 4.69566 7.10054 5.20351 7.72605C6.14797 8.88728 7.1327 9.78221 8.20722 10.4573C8.37444 10.5626 8.54475 10.6462 8.70887 10.7267C8.80797 10.7731 8.89777 10.8196 8.98757 10.8691C9.09905 10.931 9.21053 10.9589 9.322 10.9589C9.49851 10.9589 9.66263 10.8815 9.80817 10.7329C10.1581 10.3706 10.5235 10.0114 10.8734 9.66144L10.957 9.57783C11.0747 9.46016 11.2636 9.32081 11.4896 9.32081C11.7157 9.32081 11.9046 9.46016 12.0253 9.57783C12.6323 10.1817 13.2609 10.8072 13.8864 11.4389C14.2487 11.795 14.2456 12.1759 13.8864 12.5382Z" fill="#515151"/>
</svg>
