<svg width="15" height="15" viewBox="0 0 15 15" fill="none" xmlns="http://www.w3.org/2000/svg">
<path d="M7.44563 8.08242C7.46116 8.08242 7.47669 8.08242 7.49533 8.08242C7.50154 8.08242 7.50775 8.08242 7.51397 8.08242C7.52329 8.08242 7.53571 8.08242 7.54503 8.08242C8.45516 8.06689 9.19134 7.74695 9.73493 7.13502C10.9308 5.78691 10.732 3.47588 10.7103 3.25533C10.6326 1.59971 9.84986 0.807621 9.20376 0.437979C8.72229 0.161524 8.16007 0.0124249 7.5326 0H7.51086C7.50775 0 7.50154 0 7.49844 0H7.4798C7.13501 0 6.45785 0.0559122 5.80864 0.425554C5.15633 0.795196 4.36113 1.58729 4.28348 3.25533C4.26173 3.47588 4.06293 5.78691 5.25884 7.13502C5.79932 7.74695 6.5355 8.06689 7.44563 8.08242ZM5.11284 3.33299C5.11284 3.32367 5.11595 3.31435 5.11595 3.30814C5.21846 1.08097 6.79953 0.841789 7.47669 0.841789H7.48912C7.49533 0.841789 7.50465 0.841789 7.51397 0.841789C8.35265 0.860427 9.77842 1.20211 9.87471 3.30814C9.87471 3.31746 9.87471 3.32678 9.87782 3.33299C9.88092 3.35473 10.0984 5.46697 9.11057 6.579C8.71919 7.02009 8.19734 7.23752 7.51086 7.24374C7.50465 7.24374 7.50154 7.24374 7.49533 7.24374C7.48912 7.24374 7.48601 7.24374 7.4798 7.24374C6.79643 7.23752 6.27147 7.02009 5.88319 6.579C4.89851 5.47318 5.10974 3.35163 5.11284 3.33299Z" fill="#515151"/>
<path d="M13.8786 11.9155C13.8786 11.9124 13.8786 11.9093 13.8786 11.9062C13.8786 11.8814 13.8755 11.8565 13.8755 11.8286C13.8569 11.2135 13.8165 9.77533 12.4684 9.3156C12.4591 9.3125 12.4467 9.30939 12.4373 9.30628C11.0364 8.94907 9.87159 8.14144 9.85916 8.13213C9.66968 7.99856 9.40876 8.04515 9.27519 8.23463C9.14162 8.42411 9.18821 8.68504 9.37769 8.8186C9.4305 8.85588 10.6668 9.71631 12.2137 10.1139C12.9374 10.3717 13.0182 11.1452 13.0399 11.8534C13.0399 11.8814 13.0399 11.9062 13.043 11.9311C13.0462 12.2106 13.0275 12.6424 12.9778 12.8909C12.4746 13.1767 10.5022 14.1644 7.50153 14.1644C4.51333 14.1644 2.52845 13.1736 2.02214 12.8878C1.97244 12.6393 1.95069 12.2075 1.95691 11.928C1.95691 11.9031 1.96001 11.8783 1.96001 11.8503C1.98176 11.1421 2.06252 10.3686 2.78627 10.1108C4.33317 9.7132 5.56945 8.84967 5.62226 8.8155C5.81174 8.68193 5.85833 8.42101 5.72477 8.23153C5.5912 8.04205 5.33027 7.99545 5.14079 8.12902C5.12837 8.13834 3.96974 8.94596 2.56262 9.30318C2.5502 9.30628 2.54088 9.30939 2.53156 9.3125C1.18345 9.77533 1.14307 11.2135 1.12444 11.8254C1.12444 11.8534 1.12444 11.8783 1.12133 11.9031C1.12133 11.9062 1.12133 11.9093 1.12133 11.9124C1.11822 12.0739 1.11512 12.9033 1.27975 13.3195C1.31081 13.4003 1.36672 13.4686 1.44127 13.5152C1.53446 13.5774 3.76784 15 7.50464 15C11.2414 15 13.4748 13.5743 13.568 13.5152C13.6394 13.4686 13.6985 13.4003 13.7295 13.3195C13.8848 12.9064 13.8817 12.0771 13.8786 11.9155Z" fill="#515151"/>
</svg>
